<svg id="visual" viewBox="0 0 900 600" width="900" height="600" xmlns="http://www.w3.org/2000/svg" xmlns:xlink="http://www.w3.org/1999/xlink" version="1.1"><path d="M0 49L21.5 48C43 47 86 45 128.8 42C171.7 39 214.3 35 257.2 34C300 33 343 35 385.8 38C428.7 41 471.3 45 514.2 47C557 49 600 49 642.8 49C685.7 49 728.3 49 771.2 47C814 45 857 41 878.5 39L900 37L900 0L878.5 0C857 0 814 0 771.2 0C728.3 0 685.7 0 642.8 0C600 0 557 0 514.2 0C471.3 0 428.7 0 385.8 0C343 0 300 0 257.2 0C214.3 0 171.7 0 128.8 0C86 0 43 0 21.5 0L0 0Z" fill="#164194"></path><path d="M0 97L21.5 96C43 95 86 93 128.8 88C171.7 83 214.3 75 257.2 71C300 67 343 67 385.8 70C428.7 73 471.3 79 514.2 81C557 83 600 81 642.8 81C685.7 81 728.3 83 771.2 85C814 87 857 89 878.5 90L900 91L900 35L878.5 37C857 39 814 43 771.2 45C728.3 47 685.7 47 642.8 47C600 47 557 47 514.2 45C471.3 43 428.7 39 385.8 36C343 33 300 31 257.2 32C214.3 33 171.7 37 128.8 40C86 43 43 45 21.5 46L0 47Z" fill="#593c98"></path><path d="M0 133L21.5 133C43 133 86 133 128.8 132C171.7 131 214.3 129 257.2 126C300 123 343 119 385.8 119C428.7 119 471.3 123 514.2 125C557 127 600 127 642.8 127C685.7 127 728.3 127 771.2 130C814 133 857 139 878.5 142L900 145L900 89L878.5 88C857 87 814 85 771.2 83C728.3 81 685.7 79 642.8 79C600 79 557 81 514.2 79C471.3 77 428.7 71 385.8 68C343 65 300 65 257.2 69C214.3 73 171.7 81 128.8 86C86 91 43 93 21.5 94L0 95Z" fill="#853193"></path><path d="M0 199L21.5 198C43 197 86 195 128.8 191C171.7 187 214.3 181 257.2 179C300 177 343 179 385.8 180C428.7 181 471.3 181 514.2 180C557 179 600 177 642.8 178C685.7 179 728.3 183 771.2 186C814 189 857 191 878.5 192L900 193L900 143L878.5 140C857 137 814 131 771.2 128C728.3 125 685.7 125 642.8 125C600 125 557 125 514.2 123C471.3 121 428.7 117 385.8 117C343 117 300 121 257.2 124C214.3 127 171.7 129 128.8 130C86 131 43 131 21.5 131L0 131Z" fill="#aa1f85"></path><path d="M0 301L21.5 310C43 319 86 337 128.8 331C171.7 325 214.3 295 257.2 284C300 273 343 281 385.8 283C428.7 285 471.3 281 514.2 292C557 303 600 329 642.8 338C685.7 347 728.3 339 771.2 334C814 329 857 327 878.5 326L900 325L900 191L878.5 190C857 189 814 187 771.2 184C728.3 181 685.7 177 642.8 176C600 175 557 177 514.2 178C471.3 179 428.7 179 385.8 178C343 177 300 175 257.2 177C214.3 179 171.7 185 128.8 189C86 193 43 195 21.5 196L0 197Z" fill="#c80271"></path><path d="M0 445L21.5 448C43 451 86 457 128.8 457C171.7 457 214.3 451 257.2 447C300 443 343 441 385.8 439C428.7 437 471.3 435 514.2 440C557 445 600 457 642.8 462C685.7 467 728.3 465 771.2 465C814 465 857 467 878.5 468L900 469L900 323L878.5 324C857 325 814 327 771.2 332C728.3 337 685.7 345 642.8 336C600 327 557 301 514.2 290C471.3 279 428.7 283 385.8 281C343 279 300 271 257.2 282C214.3 293 171.7 323 128.8 329C86 335 43 317 21.5 308L0 299Z" fill="#dc0157"></path><path d="M0 553L21.5 549C43 545 86 537 128.8 531C171.7 525 214.3 521 257.2 521C300 521 343 525 385.8 529C428.7 533 471.3 537 514.2 541C557 545 600 549 642.8 550C685.7 551 728.3 549 771.2 545C814 541 857 535 878.5 532L900 529L900 467L878.5 466C857 465 814 463 771.2 463C728.3 463 685.7 465 642.8 460C600 455 557 443 514.2 438C471.3 433 428.7 435 385.8 437C343 439 300 441 257.2 445C214.3 449 171.7 455 128.8 455C86 455 43 449 21.5 446L0 443Z" fill="#e7273a"></path><path d="M0 601L21.5 601C43 601 86 601 128.8 601C171.7 601 214.3 601 257.2 601C300 601 343 601 385.8 601C428.7 601 471.3 601 514.2 601C557 601 600 601 642.8 601C685.7 601 728.3 601 771.2 601C814 601 857 601 878.5 601L900 601L900 527L878.5 530C857 533 814 539 771.2 543C728.3 547 685.7 549 642.8 548C600 547 557 543 514.2 539C471.3 535 428.7 531 385.8 527C343 523 300 519 257.2 519C214.3 519 171.7 523 128.8 529C86 535 43 543 21.5 547L0 551Z" fill="#e84910"></path></svg>