<svg xmlns="http://www.w3.org/2000/svg" xmlns:xlink="http://www.w3.org/1999/xlink" width="1500" zoomAndPan="magnify" viewBox="0 0 1125 374.999991" height="500" preserveAspectRatio="xMidYMid meet" version="1.0"><defs><g/><clipPath id="3bc17bf272"><path d="M 631.523438 151.3125 L 670.859375 151.3125 L 670.859375 206.476562 L 631.523438 206.476562 Z M 631.523438 151.3125 " clip-rule="nonzero"/></clipPath><clipPath id="b6c5284ec6"><path d="M 0.523438 0.3125 L 39.859375 0.3125 L 39.859375 55.476562 L 0.523438 55.476562 Z M 0.523438 0.3125 " clip-rule="nonzero"/></clipPath><clipPath id="b3022506e1"><rect x="0" width="40" y="0" height="56"/></clipPath><clipPath id="7e149bb6cf"><path d="M 638 150.648438 L 667 150.648438 L 667 206.148438 L 638 206.148438 Z M 638 150.648438 " clip-rule="nonzero"/></clipPath><clipPath id="1499d85941"><rect x="0" width="493" y="0" height="149"/></clipPath></defs><g fill="#1c1c1c" fill-opacity="1"><g transform="translate(533.628026, 222.764546)"><g><path d="M 73.5625 -3.703125 C 73.5625 -2.023438 72.570312 -0.988281 70.59375 -0.59375 C 69.019531 -0.289062 66.828125 0.00390625 64.015625 0.296875 C 61.203125 0.585938 58.238281 0.832031 55.125 1.03125 C 52.019531 1.226562 49.132812 1.328125 46.46875 1.328125 C 41.738281 1.328125 37.203125 0.90625 32.859375 0.0625 C 28.515625 -0.769531 24.640625 -2.296875 21.234375 -4.515625 C 17.828125 -6.734375 15.160156 -9.9375 13.234375 -14.125 C 11.316406 -18.320312 10.359375 -23.773438 10.359375 -30.484375 L 10.359375 -107 C 10.359375 -107.789062 10.65625 -108.484375 11.25 -109.078125 C 11.84375 -109.671875 12.53125 -109.96875 13.3125 -109.96875 L 32.703125 -109.96875 C 33.492188 -109.96875 34.1875 -109.671875 34.78125 -109.078125 C 35.375 -108.484375 35.671875 -107.789062 35.671875 -107 L 35.671875 -30.484375 C 35.671875 -26.640625 36.382812 -24 37.8125 -22.5625 C 39.238281 -21.132812 41.679688 -20.421875 45.140625 -20.421875 L 70.59375 -20.421875 C 71.382812 -20.421875 72.078125 -20.125 72.671875 -19.53125 C 73.265625 -18.9375 73.5625 -18.25 73.5625 -17.46875 Z M 73.5625 -3.703125 "/></g></g></g><g fill="#1c1c1c" fill-opacity="1"><g transform="translate(608.958012, 222.764546)"><g><path d="M 80.65625 -37.140625 C 80.65625 -25.398438 77.5 -16.050781 71.1875 -9.09375 C 64.875 -2.144531 55.695312 1.328125 43.65625 1.328125 C 31.71875 1.328125 22.539062 -2.144531 16.125 -9.09375 C 9.71875 -16.050781 6.515625 -25.398438 6.515625 -37.140625 L 6.515625 -47.515625 C 6.515625 -59.253906 9.71875 -68.597656 16.125 -75.546875 C 22.539062 -82.503906 31.71875 -85.984375 43.65625 -85.984375 C 55.695312 -85.984375 64.875 -82.503906 71.1875 -75.546875 C 77.5 -68.597656 80.65625 -59.253906 80.65625 -47.515625 Z M 56.828125 -37.140625 L 56.828125 -47.515625 C 56.828125 -59.546875 52.4375 -65.5625 43.65625 -65.5625 C 34.78125 -65.5625 30.34375 -59.546875 30.34375 -47.515625 L 30.34375 -37.140625 C 30.34375 -25.003906 34.78125 -18.9375 43.65625 -18.9375 C 52.4375 -18.9375 56.828125 -25.003906 56.828125 -37.140625 Z M 56.828125 -37.140625 "/></g></g></g><g fill="#1c1c1c" fill-opacity="1"><g transform="translate(696.127688, 222.764546)"><g><path d="M 63.9375 -4.296875 C 63.9375 -3.203125 63.6875 -2.429688 63.1875 -1.984375 C 62.695312 -1.546875 61.910156 -1.179688 60.828125 -0.890625 C 58.753906 -0.390625 56.0625 0.101562 52.75 0.59375 C 49.445312 1.082031 45.578125 1.328125 41.140625 1.328125 C 30.679688 1.328125 22.316406 -1.898438 16.046875 -8.359375 C 9.785156 -14.828125 6.65625 -24.078125 6.65625 -36.109375 L 6.65625 -48.546875 C 6.65625 -60.578125 9.785156 -69.820312 16.046875 -76.28125 C 22.316406 -82.75 30.679688 -85.984375 41.140625 -85.984375 C 45.578125 -85.984375 49.445312 -85.738281 52.75 -85.25 C 56.0625 -84.757812 58.753906 -84.265625 60.828125 -83.765625 C 61.910156 -83.472656 62.695312 -83.101562 63.1875 -82.65625 C 63.6875 -82.207031 63.9375 -81.441406 63.9375 -80.359375 L 63.9375 -67.1875 C 63.9375 -66.5 63.664062 -65.90625 63.125 -65.40625 C 62.582031 -64.914062 61.914062 -64.671875 61.125 -64.671875 C 61.125 -64.671875 61.097656 -64.671875 61.046875 -64.671875 C 60.992188 -64.671875 60.921875 -64.671875 60.828125 -64.671875 C 58.066406 -64.972656 55.425781 -65.222656 52.90625 -65.421875 C 50.394531 -65.617188 47.015625 -65.71875 42.765625 -65.71875 C 39.410156 -65.71875 36.550781 -64.503906 34.1875 -62.078125 C 31.820312 -59.660156 30.640625 -55.148438 30.640625 -48.546875 L 30.640625 -36.109375 C 30.640625 -29.503906 31.820312 -24.988281 34.1875 -22.5625 C 36.550781 -20.144531 39.410156 -18.9375 42.765625 -18.9375 C 47.015625 -18.9375 50.394531 -19.035156 52.90625 -19.234375 C 55.425781 -19.429688 58.066406 -19.679688 60.828125 -19.984375 C 60.921875 -19.984375 60.992188 -19.984375 61.046875 -19.984375 C 61.097656 -19.984375 61.125 -19.984375 61.125 -19.984375 C 61.914062 -19.984375 62.582031 -19.757812 63.125 -19.3125 C 63.664062 -18.863281 63.9375 -18.25 63.9375 -17.46875 Z M 63.9375 -4.296875 "/></g></g></g><g fill="#1c1c1c" fill-opacity="1"><g transform="translate(766.277814, 222.764546)"><g><path d="M 82.578125 -83.171875 C 82.578125 -82.679688 82.378906 -82.191406 81.984375 -81.703125 L 54.46875 -44.25 L 81.84375 -3.109375 C 82.039062 -2.910156 82.140625 -2.515625 82.140625 -1.921875 C 82.140625 -0.640625 81.5 0 80.21875 0 L 57.875 0 C 57.082031 0 56.414062 -0.117188 55.875 -0.359375 C 55.332031 -0.609375 54.765625 -1.179688 54.171875 -2.078125 L 32.859375 -36.859375 L 32.859375 -3.109375 C 32.859375 -2.316406 32.5625 -1.597656 31.96875 -0.953125 C 31.375 -0.316406 30.679688 0 29.890625 0 L 11.984375 0 C 11.191406 0 10.472656 -0.316406 9.828125 -0.953125 C 9.191406 -1.597656 8.875 -2.316406 8.875 -3.109375 L 8.875 -110.5625 C 8.875 -111.34375 9.191406 -112.03125 9.828125 -112.625 C 10.472656 -113.21875 11.191406 -113.515625 11.984375 -113.515625 L 29.890625 -113.515625 C 30.679688 -113.515625 31.375 -113.21875 31.96875 -112.625 C 32.5625 -112.03125 32.859375 -111.34375 32.859375 -110.5625 L 32.859375 -48.6875 L 55.359375 -82.578125 C 55.941406 -83.472656 56.578125 -84.066406 57.265625 -84.359375 C 57.960938 -84.648438 58.609375 -84.796875 59.203125 -84.796875 L 80.359375 -84.796875 C 81.835938 -84.796875 82.578125 -84.253906 82.578125 -83.171875 Z M 82.578125 -83.171875 "/></g></g></g><g clip-path="url(#3bc17bf272)"><g transform="matrix(1, 0, 0, 1, 631, 151)"><g clip-path="url(#b3022506e1)"><g clip-path="url(#b6c5284ec6)"><path fill="#1c1c1c" d="M 0.523438 0.3125 L 39.859375 0.3125 L 39.859375 55.476562 L 0.523438 55.476562 Z M 0.523438 0.3125 " fill-opacity="1" fill-rule="nonzero"/></g></g></g></g><g clip-path="url(#7e149bb6cf)"><path fill="#ffffff" d="M 644.230469 176.847656 L 638.390625 206.417969 L 666.324219 206.417969 L 660.488281 176.847656 C 660.902344 176.5625 661.304688 176.253906 661.6875 175.925781 C 662.074219 175.597656 662.4375 175.246094 662.785156 174.878906 C 663.132812 174.511719 663.460938 174.125 663.765625 173.722656 C 664.074219 173.320312 664.359375 172.902344 664.621094 172.46875 C 664.882812 172.039062 665.121094 171.589844 665.335938 171.132812 C 665.550781 170.675781 665.742188 170.207031 665.90625 169.730469 C 666.074219 169.25 666.214844 168.765625 666.328125 168.273438 C 666.441406 167.78125 666.53125 167.28125 666.589844 166.78125 C 666.652344 166.277344 666.6875 165.773438 666.695312 165.265625 C 666.703125 164.761719 666.683594 164.257812 666.640625 163.753906 C 666.59375 163.246094 666.523438 162.746094 666.421875 162.25 C 666.324219 161.753906 666.199219 161.265625 666.050781 160.78125 C 665.902344 160.296875 665.726562 159.824219 665.523438 159.359375 C 665.324219 158.894531 665.101562 158.441406 664.851562 158 C 664.605469 157.558594 664.332031 157.132812 664.039062 156.722656 C 663.746094 156.308594 663.429688 155.914062 663.097656 155.535156 C 662.761719 155.15625 662.40625 154.796875 662.03125 154.453125 C 661.660156 154.113281 661.269531 153.792969 660.859375 153.492188 C 660.453125 153.191406 660.03125 152.914062 659.59375 152.660156 C 659.15625 152.402344 658.707031 152.171875 658.246094 151.964844 C 657.785156 151.757812 657.3125 151.574219 656.832031 151.414062 C 656.351562 151.257812 655.863281 151.125 655.371094 151.019531 C 654.875 150.914062 654.375 150.832031 653.871094 150.78125 C 653.371094 150.726562 652.863281 150.699219 652.359375 150.699219 C 651.851562 150.699219 651.347656 150.726562 650.84375 150.78125 C 650.339844 150.832031 649.84375 150.914062 649.347656 151.019531 C 648.851562 151.125 648.367188 151.257812 647.882812 151.414062 C 647.402344 151.574219 646.933594 151.757812 646.472656 151.964844 C 646.011719 152.171875 645.5625 152.402344 645.125 152.660156 C 644.6875 152.914062 644.265625 153.191406 643.855469 153.492188 C 643.449219 153.792969 643.058594 154.113281 642.6875 154.453125 C 642.3125 154.796875 641.957031 155.15625 641.621094 155.535156 C 641.285156 155.914062 640.972656 156.308594 640.679688 156.722656 C 640.386719 157.132812 640.113281 157.558594 639.867188 158 C 639.617188 158.441406 639.394531 158.894531 639.191406 159.359375 C 638.992188 159.824219 638.816406 160.296875 638.667969 160.78125 C 638.515625 161.265625 638.390625 161.753906 638.292969 162.25 C 638.195312 162.746094 638.125 163.246094 638.078125 163.753906 C 638.035156 164.257812 638.015625 164.761719 638.023438 165.265625 C 638.03125 165.773438 638.066406 166.277344 638.128906 166.78125 C 638.1875 167.28125 638.277344 167.78125 638.390625 168.273438 C 638.503906 168.765625 638.644531 169.25 638.808594 169.730469 C 638.976562 170.207031 639.167969 170.675781 639.382812 171.132812 C 639.597656 171.59375 639.835938 172.039062 640.097656 172.46875 C 640.359375 172.902344 640.644531 173.320312 640.949219 173.722656 C 641.257812 174.125 641.585938 174.511719 641.933594 174.878906 C 642.277344 175.246094 642.644531 175.597656 643.03125 175.925781 C 643.414062 176.253906 643.8125 176.5625 644.230469 176.847656 Z M 644.230469 176.847656 " fill-opacity="1" fill-rule="nonzero"/></g><g transform="matrix(1, 0, 0, 1, 37, 113)"><g clip-path="url(#1499d85941)"><g fill="#1c1c1c" fill-opacity="1"><g transform="translate(0.500011, 113.479014)"><g><path d="M 81.078125 -31.1875 C 81.078125 -27.226562 80.359375 -23.34375 78.921875 -19.53125 C 77.484375 -15.71875 75.203125 -12.226562 72.078125 -9.0625 C 68.960938 -5.894531 64.804688 -3.367188 59.609375 -1.484375 C 54.421875 0.398438 48.0625 1.34375 40.53125 1.34375 C 34.695312 1.34375 29.5 1.039062 24.9375 0.4375 C 20.382812 -0.15625 16.226562 -0.945312 12.46875 -1.9375 C 11.78125 -2.132812 11.113281 -2.476562 10.46875 -2.96875 C 9.820312 -3.46875 9.5 -4.113281 9.5 -4.90625 L 9.5 -19.453125 C 9.5 -21.328125 10.390625 -22.265625 12.171875 -22.265625 C 12.273438 -22.265625 12.347656 -22.265625 12.390625 -22.265625 C 12.441406 -22.265625 12.519531 -22.265625 12.625 -22.265625 C 14.101562 -22.171875 16.128906 -22 18.703125 -21.75 C 21.273438 -21.5 24 -21.300781 26.875 -21.15625 C 29.75 -21.007812 32.421875 -20.859375 34.890625 -20.703125 C 37.367188 -20.554688 39.347656 -20.484375 40.828125 -20.484375 C 45.972656 -20.484375 49.460938 -21.328125 51.296875 -23.015625 C 53.128906 -24.703125 54.046875 -27.328125 54.046875 -30.890625 C 54.046875 -33.066406 53.378906 -34.921875 52.046875 -36.453125 C 50.710938 -37.984375 48.113281 -39.890625 44.25 -42.171875 L 23.75 -54.34375 C 16.820312 -58.40625 12.171875 -62.785156 9.796875 -67.484375 C 7.421875 -72.191406 6.234375 -77.265625 6.234375 -82.703125 C 6.234375 -88.148438 7.394531 -93.050781 9.71875 -97.40625 C 12.050781 -101.757812 15.988281 -105.222656 21.53125 -107.796875 C 27.070312 -110.367188 34.644531 -111.65625 44.25 -111.65625 C 47.914062 -111.65625 51.828125 -111.484375 55.984375 -111.140625 C 60.140625 -110.796875 64 -110.375 67.5625 -109.875 C 71.125 -109.382812 73.847656 -108.890625 75.734375 -108.390625 C 76.328125 -108.296875 76.84375 -108.023438 77.28125 -107.578125 C 77.726562 -107.128906 77.953125 -106.507812 77.953125 -105.71875 L 77.953125 -90.71875 C 77.953125 -90.03125 77.78125 -89.4375 77.4375 -88.9375 C 77.09375 -88.445312 76.425781 -88.203125 75.4375 -88.203125 C 75.4375 -88.203125 75.410156 -88.203125 75.359375 -88.203125 C 75.304688 -88.203125 75.234375 -88.203125 75.140625 -88.203125 C 74.140625 -88.296875 72.398438 -88.414062 69.921875 -88.5625 C 67.453125 -88.71875 64.679688 -88.894531 61.609375 -89.09375 C 58.546875 -89.289062 55.429688 -89.460938 52.265625 -89.609375 C 49.097656 -89.753906 46.226562 -89.828125 43.65625 -89.828125 C 39.394531 -89.828125 36.398438 -89.179688 34.671875 -87.890625 C 32.941406 -86.609375 32.078125 -84.632812 32.078125 -81.96875 C 32.078125 -79.882812 32.742188 -78.175781 34.078125 -76.84375 C 35.410156 -75.507812 38.054688 -73.75 42.015625 -71.5625 L 61.03125 -61.328125 C 68.75 -57.171875 74.019531 -52.613281 76.84375 -47.65625 C 79.664062 -42.707031 81.078125 -37.21875 81.078125 -31.1875 Z M 81.078125 -31.1875 "/></g></g></g><g fill="#1c1c1c" fill-opacity="1"><g transform="translate(87.812951, 113.479014)"><g><path d="M 110.765625 -2.078125 C 110.765625 -1.285156 110.492188 -0.738281 109.953125 -0.4375 C 109.410156 -0.144531 108.84375 0 108.25 0 L 88.640625 0 C 87.953125 0 87.382812 -0.296875 86.9375 -0.890625 C 86.488281 -1.484375 86.265625 -2.175781 86.265625 -2.96875 L 86.265625 -64.890625 C 86.265625 -65.679688 86.019531 -66.078125 85.53125 -66.078125 C 85.132812 -66.078125 84.738281 -65.726562 84.34375 -65.03125 L 70.96875 -40.53125 C 69.976562 -38.851562 68.492188 -38.015625 66.515625 -38.015625 L 54.640625 -38.015625 C 52.660156 -38.015625 51.175781 -38.851562 50.1875 -40.53125 L 36.828125 -65.03125 C 36.429688 -65.726562 36.035156 -66.078125 35.640625 -66.078125 C 35.140625 -66.078125 34.890625 -65.679688 34.890625 -64.890625 L 34.890625 -2.96875 C 34.890625 -2.175781 34.664062 -1.484375 34.21875 -0.890625 C 33.78125 -0.296875 33.210938 0 32.515625 0 L 12.921875 0 C 12.328125 0 11.753906 -0.144531 11.203125 -0.4375 C 10.660156 -0.738281 10.390625 -1.285156 10.390625 -2.078125 L 10.390625 -105.28125 C 10.390625 -106.863281 10.882812 -108.097656 11.875 -108.984375 C 12.863281 -109.878906 14.148438 -110.328125 15.734375 -110.328125 L 29.703125 -110.328125 C 32.671875 -110.328125 34.847656 -108.988281 36.234375 -106.3125 L 58.953125 -64 C 59.640625 -62.707031 60.179688 -62.0625 60.578125 -62.0625 C 61.078125 -62.0625 61.625 -62.707031 62.21875 -64 L 84.9375 -106.3125 C 86.320312 -108.988281 88.5 -110.328125 91.46875 -110.328125 L 105.421875 -110.328125 C 107.003906 -110.328125 108.289062 -109.851562 109.28125 -108.90625 C 110.269531 -107.96875 110.765625 -106.707031 110.765625 -105.125 Z M 110.765625 -2.078125 "/></g></g></g><g fill="#1c1c1c" fill-opacity="1"><g transform="translate(208.981909, 113.479014)"><g><path d="M 96.515625 -2.375 C 96.515625 -0.789062 95.671875 0 93.984375 0 L 73.203125 0 C 71.617188 0 70.628906 -0.890625 70.234375 -2.671875 L 64.890625 -27.03125 L 34.453125 -27.03125 L 29.109375 -2.671875 C 28.710938 -0.890625 27.722656 0 26.140625 0 L 5.34375 0 C 3.664062 0 2.828125 -0.789062 2.828125 -2.375 C 2.828125 -2.476562 2.847656 -2.601562 2.890625 -2.75 C 2.941406 -2.894531 2.96875 -3.019531 2.96875 -3.125 L 25.09375 -95.171875 C 26.28125 -99.929688 28.160156 -103.5 30.734375 -105.875 C 33.304688 -108.25 36.273438 -109.804688 39.640625 -110.546875 C 43.003906 -111.285156 46.375 -111.65625 49.75 -111.65625 C 53.207031 -111.65625 56.59375 -111.285156 59.90625 -110.546875 C 63.226562 -109.804688 66.175781 -108.25 68.75 -105.875 C 71.320312 -103.5 73.15625 -99.929688 74.25 -95.171875 L 96.359375 -3.125 C 96.359375 -3.019531 96.382812 -2.894531 96.4375 -2.75 C 96.488281 -2.601562 96.515625 -2.476562 96.515625 -2.375 Z M 60.734375 -47.359375 L 51.671875 -88.34375 C 51.578125 -89.132812 51.40625 -89.703125 51.15625 -90.046875 C 50.90625 -90.398438 50.4375 -90.578125 49.75 -90.578125 C 48.65625 -90.578125 47.957031 -89.832031 47.65625 -88.34375 L 38.609375 -47.359375 Z M 60.734375 -47.359375 "/></g></g></g><g fill="#1c1c1c" fill-opacity="1"><g transform="translate(308.322625, 113.479014)"><g><path d="M 95.625 -1.78125 C 95.625 -0.59375 94.878906 0 93.390625 0 L 70.671875 0 C 69.878906 0 69.285156 -0.320312 68.890625 -0.96875 C 68.492188 -1.613281 68.097656 -2.28125 67.703125 -2.96875 L 47.8125 -40.53125 L 46.171875 -40.390625 C 44.585938 -40.390625 42.78125 -40.4375 40.75 -40.53125 C 38.726562 -40.632812 37.023438 -40.6875 35.640625 -40.6875 L 35.640625 -2.96875 C 35.640625 -2.175781 35.34375 -1.484375 34.75 -0.890625 C 34.15625 -0.296875 33.460938 0 32.671875 0 L 13.359375 0 C 12.566406 0 11.875 -0.296875 11.28125 -0.890625 C 10.6875 -1.484375 10.390625 -2.175781 10.390625 -2.96875 L 10.390625 -102.609375 C 10.390625 -105.179688 10.929688 -106.910156 12.015625 -107.796875 C 13.109375 -108.691406 14.796875 -109.335938 17.078125 -109.734375 C 20.535156 -110.222656 25.085938 -110.664062 30.734375 -111.0625 C 36.378906 -111.457031 41.875 -111.65625 47.21875 -111.65625 C 55.632812 -111.65625 63.207031 -110.59375 69.9375 -108.46875 C 76.664062 -106.34375 82.007812 -102.753906 85.96875 -97.703125 C 89.925781 -92.648438 91.90625 -85.722656 91.90625 -76.921875 L 91.90625 -74.984375 C 91.90625 -67.160156 90.070312 -60.796875 86.40625 -55.890625 C 82.75 -50.992188 78.195312 -47.457031 72.75 -45.28125 L 95.171875 -3.421875 C 95.472656 -2.828125 95.625 -2.28125 95.625 -1.78125 Z M 66.671875 -74.984375 L 66.671875 -76.921875 C 66.671875 -81.472656 64.988281 -84.8125 61.625 -86.9375 C 58.257812 -89.0625 53.457031 -90.125 47.21875 -90.125 C 46.519531 -90.125 45.351562 -90.097656 43.71875 -90.046875 C 42.09375 -90.003906 40.488281 -89.957031 38.90625 -89.90625 C 37.320312 -89.851562 36.234375 -89.78125 35.640625 -89.6875 L 35.640625 -61.171875 C 36.234375 -61.171875 37.269531 -61.144531 38.75 -61.09375 C 40.238281 -61.050781 41.722656 -61.003906 43.203125 -60.953125 C 44.691406 -60.898438 45.679688 -60.875 46.171875 -60.875 C 53.992188 -60.875 59.363281 -61.960938 62.28125 -64.140625 C 65.207031 -66.316406 66.671875 -69.929688 66.671875 -74.984375 Z M 66.671875 -74.984375 "/></g></g></g><g fill="#1c1c1c" fill-opacity="1"><g transform="translate(404.545033, 113.479014)"><g><path d="M 83.453125 -92.203125 C 83.453125 -91.410156 83.128906 -90.742188 82.484375 -90.203125 C 81.835938 -89.660156 81.117188 -89.390625 80.328125 -89.390625 L 56.28125 -89.390625 L 56.28125 -2.96875 C 56.28125 -2.175781 55.984375 -1.484375 55.390625 -0.890625 C 54.796875 -0.296875 54.101562 0 53.3125 0 L 33.859375 0 C 33.066406 0 32.375 -0.296875 31.78125 -0.890625 C 31.1875 -1.484375 30.890625 -2.175781 30.890625 -2.96875 L 30.890625 -89.390625 L 6.6875 -89.390625 C 5.894531 -89.390625 5.203125 -89.660156 4.609375 -90.203125 C 4.015625 -90.742188 3.71875 -91.410156 3.71875 -92.203125 L 3.71875 -107.5 C 3.71875 -108.289062 4.015625 -108.957031 4.609375 -109.5 C 5.203125 -110.050781 5.894531 -110.328125 6.6875 -110.328125 L 80.328125 -110.328125 C 81.117188 -110.328125 81.835938 -110.050781 82.484375 -109.5 C 83.128906 -108.957031 83.453125 -108.289062 83.453125 -107.5 Z M 83.453125 -92.203125 "/></g></g></g></g></g><g fill="#e84910" fill-opacity="1"><g transform="translate(857.542229, 223.375509)"><g><path d="M 63.0625 -2.09375 C 63.0625 -1.53125 62.851562 -1.039062 62.4375 -0.625 C 62.019531 -0.207031 61.53125 0 60.96875 0 L 55.625 0 C 55.070312 0 54.582031 -0.207031 54.15625 -0.625 C 53.738281 -1.039062 53.53125 -1.53125 53.53125 -2.09375 L 53.53125 -36.875 L 17.703125 -36.875 L 17.703125 -2.09375 C 17.703125 -1.53125 17.492188 -1.039062 17.078125 -0.625 C 16.660156 -0.207031 16.171875 0 15.609375 0 L 10.265625 0 C 9.703125 0 9.210938 -0.207031 8.796875 -0.625 C 8.378906 -1.039062 8.171875 -1.53125 8.171875 -2.09375 L 8.171875 -75.75 C 8.171875 -76.300781 8.378906 -76.785156 8.796875 -77.203125 C 9.210938 -77.628906 9.703125 -77.84375 10.265625 -77.84375 L 15.609375 -77.84375 C 16.171875 -77.84375 16.660156 -77.628906 17.078125 -77.203125 C 17.492188 -76.785156 17.703125 -76.300781 17.703125 -75.75 L 17.703125 -45.359375 L 53.53125 -45.359375 L 53.53125 -75.75 C 53.53125 -76.300781 53.738281 -76.785156 54.15625 -77.203125 C 54.582031 -77.628906 55.070312 -77.84375 55.625 -77.84375 L 60.96875 -77.84375 C 61.53125 -77.84375 62.019531 -77.628906 62.4375 -77.203125 C 62.851562 -76.785156 63.0625 -76.300781 63.0625 -75.75 Z M 63.0625 -2.09375 "/></g></g></g><g fill="#e84910" fill-opacity="1"><g transform="translate(925.639652, 223.375509)"><g><path d="M 71.65625 -2.09375 C 71.65625 -1.53125 71.445312 -1.039062 71.03125 -0.625 C 70.613281 -0.207031 70.125 0 69.5625 0 L 64.4375 0 C 63.875 0 63.378906 -0.207031 62.953125 -0.625 C 62.535156 -1.039062 62.328125 -1.53125 62.328125 -2.09375 L 62.328125 -64.21875 C 62.328125 -64.425781 62.296875 -64.53125 62.234375 -64.53125 C 62.160156 -64.53125 62.085938 -64.460938 62.015625 -64.328125 L 47.046875 -33.3125 C 46.554688 -32.269531 45.976562 -31.503906 45.3125 -31.015625 C 44.644531 -30.523438 43.648438 -30.28125 42.328125 -30.28125 L 37.5 -30.28125 C 36.175781 -30.28125 35.195312 -30.523438 34.5625 -31.015625 C 33.9375 -31.503906 33.347656 -32.269531 32.796875 -33.3125 L 17.8125 -64.328125 C 17.738281 -64.460938 17.664062 -64.53125 17.59375 -64.53125 C 17.53125 -64.53125 17.5 -64.425781 17.5 -64.21875 L 17.5 -2.09375 C 17.5 -1.53125 17.285156 -1.039062 16.859375 -0.625 C 16.441406 -0.207031 15.957031 0 15.40625 0 L 10.265625 0 C 9.703125 0 9.210938 -0.207031 8.796875 -0.625 C 8.378906 -1.039062 8.171875 -1.53125 8.171875 -2.09375 L 8.171875 -74.796875 C 8.171875 -75.640625 8.46875 -76.359375 9.0625 -76.953125 C 9.65625 -77.546875 10.367188 -77.84375 11.203125 -77.84375 L 18.015625 -77.84375 C 19.691406 -77.84375 20.8125 -77.25 21.375 -76.0625 L 38.65625 -40.125 C 39.007812 -39.351562 39.429688 -38.96875 39.921875 -38.96875 C 40.410156 -38.96875 40.828125 -39.351562 41.171875 -40.125 L 58.453125 -76.0625 C 59.015625 -77.25 60.132812 -77.84375 61.8125 -77.84375 L 68.625 -77.84375 C 69.457031 -77.84375 70.171875 -77.546875 70.765625 -76.953125 C 71.359375 -76.359375 71.65625 -75.640625 71.65625 -74.796875 Z M 71.65625 -2.09375 "/></g></g></g><g fill="#e84910" fill-opacity="1"><g transform="translate(1002.223086, 223.375509)"><g><path d="M 18.75 -2.09375 C 18.75 -1.601562 18.570312 -1.128906 18.21875 -0.671875 C 17.875 -0.222656 17.425781 0 16.875 0 L 11.109375 0 C 10.617188 0 10.179688 -0.207031 9.796875 -0.625 C 9.410156 -1.039062 9.21875 -1.53125 9.21875 -2.09375 L 9.21875 -75.84375 C 9.21875 -76.40625 9.390625 -76.878906 9.734375 -77.265625 C 10.085938 -77.648438 10.546875 -77.84375 11.109375 -77.84375 L 16.875 -77.84375 C 18.125 -77.84375 18.75 -77.175781 18.75 -75.84375 Z M 18.75 -2.09375 "/></g></g></g></svg>