<svg xmlns="http://www.w3.org/2000/svg" xmlns:xlink="http://www.w3.org/1999/xlink" width="1500" zoomAndPan="magnify" viewBox="0 0 1125 374.999991" height="500" preserveAspectRatio="xMidYMid meet" version="1.0"><defs><g/><clipPath id="044354d181"><rect x="0" width="442" y="0" height="207"/></clipPath><clipPath id="5638087efc"><path d="M 817.429688 146.125 L 871.558594 146.125 L 871.558594 222.039062 L 817.429688 222.039062 Z M 817.429688 146.125 " clip-rule="nonzero"/></clipPath><clipPath id="6d6527c759"><path d="M 0.429688 0.125 L 54.558594 0.125 L 54.558594 76.039062 L 0.429688 76.039062 Z M 0.429688 0.125 " clip-rule="nonzero"/></clipPath><clipPath id="4c911b5764"><rect x="0" width="55" y="0" height="77"/></clipPath><clipPath id="39f4ece234"><path d="M 826 145.214844 L 866 145.214844 L 866 221.714844 L 826 221.714844 Z M 826 145.214844 " clip-rule="nonzero"/></clipPath><clipPath id="16af1f4226"><rect x="0" width="677" y="0" height="205"/></clipPath></defs><g transform="matrix(1, 0, 0, 1, 682, 87)"><g clip-path="url(#044354d181)"><g fill="#fefefe" fill-opacity="1"><g transform="translate(0.716238, 157.450515)"><g><path d="M 101.21875 -5.09375 C 101.21875 -2.78125 99.859375 -1.351562 97.140625 -0.8125 C 94.972656 -0.40625 91.953125 0 88.078125 0.40625 C 84.210938 0.8125 80.140625 1.148438 75.859375 1.421875 C 71.585938 1.691406 67.617188 1.828125 63.953125 1.828125 C 57.429688 1.828125 51.179688 1.25 45.203125 0.09375 C 39.234375 -1.050781 33.90625 -3.148438 29.21875 -6.203125 C 24.539062 -9.265625 20.875 -13.679688 18.21875 -19.453125 C 15.570312 -25.222656 14.25 -32.722656 14.25 -41.953125 L 14.25 -147.25 C 14.25 -148.332031 14.65625 -149.28125 15.46875 -150.09375 C 16.289062 -150.90625 17.242188 -151.3125 18.328125 -151.3125 L 45.015625 -151.3125 C 46.097656 -151.3125 47.046875 -150.90625 47.859375 -150.09375 C 48.671875 -149.28125 49.078125 -148.332031 49.078125 -147.25 L 49.078125 -41.953125 C 49.078125 -36.660156 50.0625 -33.03125 52.03125 -31.0625 C 54 -29.09375 57.359375 -28.109375 62.109375 -28.109375 L 97.140625 -28.109375 C 98.222656 -28.109375 99.171875 -27.695312 99.984375 -26.875 C 100.804688 -26.0625 101.21875 -25.113281 101.21875 -24.03125 Z M 101.21875 -5.09375 "/></g></g></g><g fill="#e84910" fill-opacity="1"><g transform="translate(104.390539, 157.450515)"><g><path d="M 111 -51.125 C 111 -34.957031 106.648438 -22.085938 97.953125 -12.515625 C 89.265625 -2.953125 76.640625 1.828125 60.078125 1.828125 C 43.648438 1.828125 31.019531 -2.953125 22.1875 -12.515625 C 13.363281 -22.085938 8.953125 -34.957031 8.953125 -51.125 L 8.953125 -65.375 C 8.953125 -81.53125 13.363281 -94.394531 22.1875 -103.96875 C 31.019531 -113.539062 43.648438 -118.328125 60.078125 -118.328125 C 76.640625 -118.328125 89.265625 -113.539062 97.953125 -103.96875 C 106.648438 -94.394531 111 -81.53125 111 -65.375 Z M 78.203125 -51.125 L 78.203125 -65.375 C 78.203125 -81.9375 72.160156 -90.21875 60.078125 -90.21875 C 47.859375 -90.21875 41.75 -81.9375 41.75 -65.375 L 41.75 -51.125 C 41.75 -34.414062 47.859375 -26.0625 60.078125 -26.0625 C 72.160156 -26.0625 78.203125 -34.414062 78.203125 -51.125 Z M 78.203125 -51.125 "/></g></g></g><g fill="#fefefe" fill-opacity="1"><g transform="translate(224.352139, 157.450515)"><g><path d="M 87.984375 -5.90625 C 87.984375 -4.414062 87.640625 -3.363281 86.953125 -2.75 C 86.273438 -2.132812 85.191406 -1.625 83.703125 -1.21875 C 80.847656 -0.539062 77.144531 0.132812 72.59375 0.8125 C 68.050781 1.488281 62.722656 1.828125 56.609375 1.828125 C 42.222656 1.828125 30.71875 -2.613281 22.09375 -11.5 C 13.476562 -20.394531 9.171875 -33.125 9.171875 -49.6875 L 9.171875 -66.796875 C 9.171875 -83.359375 13.476562 -96.085938 22.09375 -104.984375 C 30.71875 -113.878906 42.222656 -118.328125 56.609375 -118.328125 C 62.722656 -118.328125 68.050781 -117.984375 72.59375 -117.296875 C 77.144531 -116.617188 80.847656 -115.941406 83.703125 -115.265625 C 85.191406 -114.859375 86.273438 -114.347656 86.953125 -113.734375 C 87.640625 -113.128906 87.984375 -112.078125 87.984375 -110.578125 L 87.984375 -92.453125 C 87.984375 -91.503906 87.609375 -90.691406 86.859375 -90.015625 C 86.109375 -89.335938 85.191406 -89 84.109375 -89 C 84.109375 -89 84.070312 -89 84 -89 C 83.9375 -89 83.835938 -89 83.703125 -89 C 79.898438 -89.40625 76.265625 -89.742188 72.796875 -90.015625 C 69.335938 -90.285156 64.691406 -90.421875 58.859375 -90.421875 C 54.242188 -90.421875 50.304688 -88.753906 47.046875 -85.421875 C 43.785156 -82.097656 42.15625 -75.890625 42.15625 -66.796875 L 42.15625 -49.6875 C 42.15625 -40.59375 43.785156 -34.378906 47.046875 -31.046875 C 50.304688 -27.722656 54.242188 -26.0625 58.859375 -26.0625 C 64.691406 -26.0625 69.335938 -26.195312 72.796875 -26.46875 C 76.265625 -26.738281 79.898438 -27.082031 83.703125 -27.5 C 83.835938 -27.5 83.9375 -27.5 84 -27.5 C 84.070312 -27.5 84.109375 -27.5 84.109375 -27.5 C 85.191406 -27.5 86.109375 -27.191406 86.859375 -26.578125 C 87.609375 -25.960938 87.984375 -25.113281 87.984375 -24.03125 Z M 87.984375 -5.90625 "/></g></g></g><g fill="#fefefe" fill-opacity="1"><g transform="translate(320.884936, 157.450515)"><g><path d="M 113.640625 -114.453125 C 113.640625 -113.773438 113.367188 -113.097656 112.828125 -112.421875 L 74.953125 -60.890625 L 112.625 -4.28125 C 112.894531 -4.007812 113.03125 -3.460938 113.03125 -2.640625 C 113.03125 -0.878906 112.144531 0 110.375 0 L 79.625 0 C 78.539062 0 77.625 -0.164062 76.875 -0.5 C 76.132812 -0.84375 75.351562 -1.625 74.53125 -2.84375 L 45.21875 -50.703125 L 45.21875 -4.28125 C 45.21875 -3.1875 44.804688 -2.195312 43.984375 -1.3125 C 43.171875 -0.4375 42.222656 0 41.140625 0 L 16.5 0 C 15.40625 0 14.414062 -0.4375 13.53125 -1.3125 C 12.65625 -2.195312 12.21875 -3.1875 12.21875 -4.28125 L 12.21875 -152.125 C 12.21875 -153.21875 12.65625 -154.171875 13.53125 -154.984375 C 14.414062 -155.796875 15.40625 -156.203125 16.5 -156.203125 L 41.140625 -156.203125 C 42.222656 -156.203125 43.171875 -155.796875 43.984375 -154.984375 C 44.804688 -154.171875 45.21875 -153.21875 45.21875 -152.125 L 45.21875 -67 L 76.171875 -113.640625 C 76.984375 -114.859375 77.863281 -115.671875 78.8125 -116.078125 C 79.757812 -116.484375 80.644531 -116.6875 81.46875 -116.6875 L 110.578125 -116.6875 C 112.617188 -116.6875 113.640625 -115.941406 113.640625 -114.453125 Z M 113.640625 -114.453125 "/></g></g></g></g></g><g clip-path="url(#5638087efc)"><g transform="matrix(1, 0, 0, 1, 817, 146)"><g clip-path="url(#4c911b5764)"><g clip-path="url(#6d6527c759)"><path fill="#e84910" d="M 0.429688 0.125 L 54.558594 0.125 L 54.558594 76.035156 L 0.429688 76.035156 Z M 0.429688 0.125 " fill-opacity="1" fill-rule="nonzero"/></g></g></g></g><g clip-path="url(#39f4ece234)"><path fill="#000000" d="M 834.902344 181.121094 L 826.878906 221.648438 L 865.257812 221.648438 L 857.234375 181.121094 C 857.808594 180.730469 858.359375 180.308594 858.886719 179.855469 C 859.414062 179.402344 859.917969 178.925781 860.394531 178.421875 C 860.871094 177.917969 861.320312 177.390625 861.742188 176.835938 C 862.164062 176.285156 862.554688 175.714844 862.914062 175.121094 C 863.277344 174.527344 863.605469 173.917969 863.898438 173.289062 C 864.195312 172.660156 864.457031 172.019531 864.683594 171.363281 C 864.910156 170.707031 865.105469 170.042969 865.261719 169.367188 C 865.417969 168.691406 865.539062 168.007812 865.621094 167.320312 C 865.707031 166.632812 865.753906 165.941406 865.765625 165.246094 C 865.777344 164.554688 865.75 163.863281 865.691406 163.171875 C 865.628906 162.480469 865.527344 161.792969 865.394531 161.113281 C 865.257812 160.433594 865.085938 159.761719 864.882812 159.101562 C 864.675781 158.4375 864.433594 157.789062 864.160156 157.152344 C 863.882812 156.515625 863.574219 155.894531 863.234375 155.289062 C 862.890625 154.683594 862.519531 154.101562 862.117188 153.535156 C 861.714844 152.96875 861.28125 152.429688 860.820312 151.910156 C 860.359375 151.390625 859.871094 150.894531 859.359375 150.425781 C 858.847656 149.960938 858.308594 149.519531 857.75 149.109375 C 857.191406 148.699219 856.609375 148.316406 856.007812 147.964844 C 855.410156 147.617188 854.792969 147.300781 854.15625 147.015625 C 853.523438 146.730469 852.875 146.480469 852.214844 146.261719 C 851.554688 146.046875 850.886719 145.863281 850.207031 145.71875 C 849.527344 145.574219 848.839844 145.464844 848.148438 145.390625 C 847.457031 145.316406 846.761719 145.28125 846.066406 145.28125 C 845.371094 145.28125 844.679688 145.316406 843.988281 145.390625 C 843.296875 145.464844 842.609375 145.574219 841.929688 145.71875 C 841.25 145.863281 840.582031 146.046875 839.921875 146.261719 C 839.257812 146.480469 838.613281 146.730469 837.976562 147.015625 C 837.34375 147.300781 836.726562 147.617188 836.125 147.964844 C 835.527344 148.316406 834.945312 148.699219 834.386719 149.109375 C 833.828125 149.519531 833.289062 149.960938 832.777344 150.425781 C 832.261719 150.894531 831.777344 151.390625 831.316406 151.910156 C 830.855469 152.429688 830.421875 152.96875 830.019531 153.535156 C 829.617188 154.101562 829.242188 154.683594 828.902344 155.289062 C 828.5625 155.894531 828.253906 156.515625 827.976562 157.152344 C 827.703125 157.789062 827.460938 158.4375 827.253906 159.101562 C 827.050781 159.761719 826.878906 160.433594 826.742188 161.113281 C 826.609375 161.792969 826.507812 162.480469 826.445312 163.171875 C 826.382812 163.863281 826.359375 164.554688 826.371094 165.246094 C 826.382812 165.941406 826.429688 166.632812 826.511719 167.320312 C 826.597656 168.007812 826.71875 168.691406 826.875 169.367188 C 827.03125 170.042969 827.222656 170.707031 827.453125 171.363281 C 827.679688 172.019531 827.941406 172.660156 828.238281 173.289062 C 828.53125 173.917969 828.859375 174.527344 829.222656 175.121094 C 829.582031 175.714844 829.972656 176.285156 830.394531 176.835938 C 830.816406 177.390625 831.265625 177.917969 831.742188 178.421875 C 832.21875 178.925781 832.722656 179.402344 833.25 179.855469 C 833.777344 180.308594 834.328125 180.730469 834.902344 181.121094 Z M 834.902344 181.121094 " fill-opacity="1" fill-rule="nonzero"/></g><g transform="matrix(1, 0, 0, 1, 0, 93)"><g clip-path="url(#16af1f4226)"><g fill="#fefefe" fill-opacity="1"><g transform="translate(0.0161395, 155.97972)"><g><path d="M 111.5625 -42.90625 C 111.5625 -37.457031 110.570312 -32.109375 108.59375 -26.859375 C 106.625 -21.617188 103.492188 -16.816406 99.203125 -12.453125 C 94.910156 -8.097656 89.1875 -4.625 82.03125 -2.03125 C 74.882812 0.550781 66.132812 1.84375 55.78125 1.84375 C 47.738281 1.84375 40.582031 1.429688 34.3125 0.609375 C 28.050781 -0.199219 22.332031 -1.289062 17.15625 -2.65625 C 16.207031 -2.925781 15.289062 -3.398438 14.40625 -4.078125 C 13.519531 -4.765625 13.078125 -5.65625 13.078125 -6.75 L 13.078125 -26.765625 C 13.078125 -29.359375 14.300781 -30.65625 16.75 -30.65625 C 16.882812 -30.65625 16.984375 -30.65625 17.046875 -30.65625 C 17.117188 -30.65625 17.226562 -30.65625 17.375 -30.65625 C 19.414062 -30.507812 22.207031 -30.265625 25.75 -29.921875 C 29.289062 -29.585938 33.035156 -29.316406 36.984375 -29.109375 C 40.929688 -28.910156 44.609375 -28.707031 48.015625 -28.5 C 51.421875 -28.300781 54.144531 -28.203125 56.1875 -28.203125 C 63.269531 -28.203125 68.070312 -29.359375 70.59375 -31.671875 C 73.113281 -33.984375 74.375 -37.59375 74.375 -42.5 C 74.375 -45.5 73.453125 -48.050781 71.609375 -50.15625 C 69.773438 -52.269531 66.203125 -54.894531 60.890625 -58.03125 L 32.6875 -74.78125 C 23.15625 -80.363281 16.753906 -86.390625 13.484375 -92.859375 C 10.210938 -99.335938 8.578125 -106.320312 8.578125 -113.8125 C 8.578125 -121.300781 10.175781 -128.039062 13.375 -134.03125 C 16.582031 -140.03125 22 -144.800781 29.625 -148.34375 C 37.25 -151.882812 47.671875 -153.65625 60.890625 -153.65625 C 65.929688 -153.65625 71.3125 -153.414062 77.03125 -152.9375 C 82.75 -152.457031 88.0625 -151.878906 92.96875 -151.203125 C 97.875 -150.523438 101.617188 -149.84375 104.203125 -149.15625 C 105.023438 -149.019531 105.738281 -148.644531 106.34375 -148.03125 C 106.957031 -147.414062 107.265625 -146.566406 107.265625 -145.484375 L 107.265625 -124.84375 C 107.265625 -123.894531 107.023438 -123.078125 106.546875 -122.390625 C 106.078125 -121.710938 105.160156 -121.375 103.796875 -121.375 C 103.796875 -121.375 103.757812 -121.375 103.6875 -121.375 C 103.625 -121.375 103.523438 -121.375 103.390625 -121.375 C 102.023438 -121.507812 99.640625 -121.675781 96.234375 -121.875 C 92.828125 -122.082031 89.015625 -122.320312 84.796875 -122.59375 C 80.578125 -122.863281 76.285156 -123.101562 71.921875 -123.3125 C 67.566406 -123.519531 63.617188 -123.625 60.078125 -123.625 C 54.210938 -123.625 50.085938 -122.738281 47.703125 -120.96875 C 45.328125 -119.195312 44.140625 -116.472656 44.140625 -112.796875 C 44.140625 -109.929688 45.054688 -107.578125 46.890625 -105.734375 C 48.734375 -103.898438 52.378906 -101.484375 57.828125 -98.484375 L 83.984375 -84.390625 C 94.609375 -78.671875 101.859375 -72.40625 105.734375 -65.59375 C 109.617188 -58.78125 111.5625 -51.21875 111.5625 -42.90625 Z M 111.5625 -42.90625 "/></g></g></g><g fill="#fefefe" fill-opacity="1"><g transform="translate(120.154464, 155.97972)"><g><path d="M 152.421875 -2.859375 C 152.421875 -1.765625 152.046875 -1.015625 151.296875 -0.609375 C 150.554688 -0.203125 149.773438 0 148.953125 0 L 121.984375 0 C 121.023438 0 120.238281 -0.40625 119.625 -1.21875 C 119.019531 -2.039062 118.71875 -3 118.71875 -4.09375 L 118.71875 -89.296875 C 118.71875 -90.378906 118.375 -90.921875 117.6875 -90.921875 C 117.144531 -90.921875 116.601562 -90.445312 116.0625 -89.5 L 97.671875 -55.78125 C 96.304688 -53.46875 94.257812 -52.3125 91.53125 -52.3125 L 75.1875 -52.3125 C 72.46875 -52.3125 70.425781 -53.46875 69.0625 -55.78125 L 50.671875 -89.5 C 50.128906 -90.445312 49.582031 -90.921875 49.03125 -90.921875 C 48.351562 -90.921875 48.015625 -90.378906 48.015625 -89.296875 L 48.015625 -4.09375 C 48.015625 -3 47.707031 -2.039062 47.09375 -1.21875 C 46.476562 -0.40625 45.695312 0 44.75 0 L 17.78125 0 C 16.957031 0 16.171875 -0.203125 15.421875 -0.609375 C 14.671875 -1.015625 14.296875 -1.765625 14.296875 -2.859375 L 14.296875 -144.875 C 14.296875 -147.050781 14.976562 -148.75 16.34375 -149.96875 C 17.707031 -151.195312 19.476562 -151.8125 21.65625 -151.8125 L 40.859375 -151.8125 C 44.953125 -151.8125 47.953125 -149.972656 49.859375 -146.296875 L 81.125 -88.0625 C 82.070312 -86.289062 82.816406 -85.40625 83.359375 -85.40625 C 84.046875 -85.40625 84.796875 -86.289062 85.609375 -88.0625 L 116.875 -146.296875 C 118.78125 -149.972656 121.773438 -151.8125 125.859375 -151.8125 L 145.078125 -151.8125 C 147.253906 -151.8125 149.019531 -151.164062 150.375 -149.875 C 151.738281 -148.582031 152.421875 -146.847656 152.421875 -144.671875 Z M 152.421875 -2.859375 "/></g></g></g><g fill="#fefefe" fill-opacity="1"><g transform="translate(286.87704, 155.97972)"><g><path d="M 132.8125 -3.265625 C 132.8125 -1.085938 131.65625 0 129.34375 0 L 100.734375 0 C 98.554688 0 97.191406 -1.222656 96.640625 -3.671875 L 89.296875 -37.1875 L 47.40625 -37.1875 L 40.046875 -3.671875 C 39.503906 -1.222656 38.144531 0 35.96875 0 L 7.359375 0 C 5.035156 0 3.875 -1.085938 3.875 -3.265625 C 3.875 -3.398438 3.910156 -3.570312 3.984375 -3.78125 C 4.054688 -3.988281 4.09375 -4.160156 4.09375 -4.296875 L 34.53125 -130.96875 C 36.164062 -137.507812 38.753906 -142.414062 42.296875 -145.6875 C 45.835938 -148.957031 49.921875 -151.101562 54.546875 -152.125 C 59.179688 -153.144531 63.816406 -153.65625 68.453125 -153.65625 C 73.210938 -153.65625 77.875 -153.144531 82.4375 -152.125 C 87.007812 -151.101562 91.066406 -148.957031 94.609375 -145.6875 C 98.148438 -142.414062 100.664062 -137.507812 102.15625 -130.96875 L 132.609375 -4.296875 C 132.609375 -4.160156 132.640625 -3.988281 132.703125 -3.78125 C 132.773438 -3.570312 132.8125 -3.398438 132.8125 -3.265625 Z M 83.5625 -65.1875 L 71.109375 -121.578125 C 70.972656 -122.660156 70.734375 -123.441406 70.390625 -123.921875 C 70.046875 -124.398438 69.398438 -124.640625 68.453125 -124.640625 C 66.953125 -124.640625 66 -123.617188 65.59375 -121.578125 L 53.125 -65.1875 Z M 83.5625 -65.1875 "/></g></g></g><g fill="#fefefe" fill-opacity="1"><g transform="translate(423.565027, 155.97972)"><g><path d="M 131.59375 -2.453125 C 131.59375 -0.816406 130.566406 0 128.515625 0 L 97.265625 0 C 96.171875 0 95.347656 -0.441406 94.796875 -1.328125 C 94.253906 -2.210938 93.710938 -3.132812 93.171875 -4.09375 L 65.796875 -55.78125 L 63.546875 -55.578125 C 61.367188 -55.578125 58.882812 -55.644531 56.09375 -55.78125 C 53.300781 -55.914062 50.945312 -55.984375 49.03125 -55.984375 L 49.03125 -4.09375 C 49.03125 -3 48.625 -2.039062 47.8125 -1.21875 C 47 -0.40625 46.046875 0 44.953125 0 L 18.390625 0 C 17.296875 0 16.335938 -0.40625 15.515625 -1.21875 C 14.703125 -2.039062 14.296875 -3 14.296875 -4.09375 L 14.296875 -141.1875 C 14.296875 -144.726562 15.046875 -147.113281 16.546875 -148.34375 C 18.046875 -149.570312 20.363281 -150.457031 23.5 -151 C 28.269531 -151.675781 34.535156 -152.285156 42.296875 -152.828125 C 50.054688 -153.378906 57.613281 -153.65625 64.96875 -153.65625 C 76.550781 -153.65625 86.972656 -152.191406 96.234375 -149.265625 C 105.503906 -146.335938 112.863281 -141.398438 118.3125 -134.453125 C 123.757812 -127.503906 126.484375 -117.96875 126.484375 -105.84375 L 126.484375 -103.1875 C 126.484375 -92.425781 123.960938 -83.671875 118.921875 -76.921875 C 113.878906 -70.179688 107.613281 -65.3125 100.125 -62.3125 L 130.96875 -4.703125 C 131.382812 -3.878906 131.59375 -3.128906 131.59375 -2.453125 Z M 91.75 -103.1875 L 91.75 -105.84375 C 91.75 -112.101562 89.429688 -116.695312 84.796875 -119.625 C 80.160156 -122.5625 73.550781 -124.03125 64.96875 -124.03125 C 64.019531 -124.03125 62.421875 -123.992188 60.171875 -123.921875 C 57.921875 -123.859375 55.707031 -123.789062 53.53125 -123.71875 C 51.351562 -123.65625 49.851562 -123.554688 49.03125 -123.421875 L 49.03125 -84.1875 C 49.851562 -84.1875 51.285156 -84.148438 53.328125 -84.078125 C 55.367188 -84.015625 57.410156 -83.945312 59.453125 -83.875 C 61.503906 -83.8125 62.867188 -83.78125 63.546875 -83.78125 C 74.304688 -83.78125 81.695312 -85.273438 85.71875 -88.265625 C 89.738281 -91.265625 91.75 -96.238281 91.75 -103.1875 Z M 91.75 -103.1875 "/></g></g></g><g fill="#fefefe" fill-opacity="1"><g transform="translate(555.962007, 155.97972)"><g><path d="M 114.828125 -126.890625 C 114.828125 -125.796875 114.382812 -124.875 113.5 -124.125 C 112.613281 -123.375 111.628906 -123 110.546875 -123 L 77.4375 -123 L 77.4375 -4.09375 C 77.4375 -3 77.023438 -2.039062 76.203125 -1.21875 C 75.390625 -0.40625 74.441406 0 73.359375 0 L 46.59375 0 C 45.5 0 44.539062 -0.40625 43.71875 -1.21875 C 42.90625 -2.039062 42.5 -3 42.5 -4.09375 L 42.5 -123 L 9.1875 -123 C 8.101562 -123 7.148438 -123.375 6.328125 -124.125 C 5.515625 -124.875 5.109375 -125.796875 5.109375 -126.890625 L 5.109375 -147.9375 C 5.109375 -149.019531 5.515625 -149.9375 6.328125 -150.6875 C 7.148438 -151.4375 8.101562 -151.8125 9.1875 -151.8125 L 110.546875 -151.8125 C 111.628906 -151.8125 112.613281 -151.4375 113.5 -150.6875 C 114.382812 -149.9375 114.828125 -149.019531 114.828125 -147.9375 Z M 114.828125 -126.890625 "/></g></g></g></g></g></svg>