<svg xmlns="http://www.w3.org/2000/svg" xmlns:xlink="http://www.w3.org/1999/xlink" width="1500" zoomAndPan="magnify" viewBox="0 0 1125 374.999991" height="500" preserveAspectRatio="xMidYMid meet" version="1.0"><defs><g/><clipPath id="3f5f15928e"><rect x="0" width="442" y="0" height="207"/></clipPath><clipPath id="985596a9cf"><path d="M 818.261719 148.046875 L 872.449219 148.046875 L 872.449219 224.039062 L 818.261719 224.039062 Z M 818.261719 148.046875 " clip-rule="nonzero"/></clipPath><clipPath id="a7f1d71c46"><path d="M 0.261719 0.046875 L 54.449219 0.046875 L 54.449219 76.039062 L 0.261719 76.039062 Z M 0.261719 0.046875 " clip-rule="nonzero"/></clipPath><clipPath id="48fa145d98"><rect x="0" width="55" y="0" height="77"/></clipPath><clipPath id="1525c33a3b"><path d="M 827 147.136719 L 867 147.136719 L 867 224 L 827 224 Z M 827 147.136719 " clip-rule="nonzero"/></clipPath><clipPath id="834a5a2821"><rect x="0" width="678" y="0" height="206"/></clipPath></defs><g transform="matrix(1, 0, 0, 1, 683, 89)"><g clip-path="url(#3f5f15928e)"><g fill="#1c1c1c" fill-opacity="1"><g transform="translate(0.41116, 157.474434)"><g><path d="M 101.3125 -5.09375 C 101.3125 -2.78125 99.953125 -1.351562 97.234375 -0.8125 C 95.066406 -0.40625 92.046875 0 88.171875 0.40625 C 84.296875 0.8125 80.21875 1.148438 75.9375 1.421875 C 71.65625 1.691406 67.679688 1.828125 64.015625 1.828125 C 57.492188 1.828125 51.238281 1.25 45.25 0.09375 C 39.269531 -1.050781 33.9375 -3.148438 29.25 -6.203125 C 24.5625 -9.265625 20.890625 -13.679688 18.234375 -19.453125 C 15.585938 -25.234375 14.265625 -32.75 14.265625 -42 L 14.265625 -147.390625 C 14.265625 -148.472656 14.671875 -149.421875 15.484375 -150.234375 C 16.304688 -151.054688 17.257812 -151.46875 18.34375 -151.46875 L 45.046875 -151.46875 C 46.140625 -151.46875 47.09375 -151.054688 47.90625 -150.234375 C 48.71875 -149.421875 49.125 -148.472656 49.125 -147.390625 L 49.125 -42 C 49.125 -36.695312 50.109375 -33.054688 52.078125 -31.078125 C 54.054688 -29.109375 57.421875 -28.125 62.171875 -28.125 L 97.234375 -28.125 C 98.328125 -28.125 99.28125 -27.71875 100.09375 -26.90625 C 100.90625 -26.09375 101.3125 -25.144531 101.3125 -24.0625 Z M 101.3125 -5.09375 "/></g></g></g><g fill="#e84910" fill-opacity="1"><g transform="translate(104.190995, 157.474434)"><g><path d="M 111.109375 -51.171875 C 111.109375 -34.992188 106.757812 -22.113281 98.0625 -12.53125 C 89.363281 -2.957031 76.722656 1.828125 60.140625 1.828125 C 43.691406 1.828125 31.050781 -2.957031 22.21875 -12.53125 C 13.382812 -22.113281 8.96875 -34.992188 8.96875 -51.171875 L 8.96875 -65.4375 C 8.96875 -81.613281 13.382812 -94.488281 22.21875 -104.0625 C 31.050781 -113.644531 43.691406 -118.4375 60.140625 -118.4375 C 76.722656 -118.4375 89.363281 -113.644531 98.0625 -104.0625 C 106.757812 -94.488281 111.109375 -81.613281 111.109375 -65.4375 Z M 78.28125 -51.171875 L 78.28125 -65.4375 C 78.28125 -82.019531 72.234375 -90.3125 60.140625 -90.3125 C 47.910156 -90.3125 41.796875 -82.019531 41.796875 -65.4375 L 41.796875 -51.171875 C 41.796875 -34.453125 47.910156 -26.09375 60.140625 -26.09375 C 72.234375 -26.09375 78.28125 -34.453125 78.28125 -51.171875 Z M 78.28125 -51.171875 "/></g></g></g><g fill="#1c1c1c" fill-opacity="1"><g transform="translate(224.274708, 157.474434)"><g><path d="M 88.0625 -5.90625 C 88.0625 -4.414062 87.722656 -3.363281 87.046875 -2.75 C 86.367188 -2.132812 85.28125 -1.625 83.78125 -1.21875 C 80.925781 -0.539062 77.222656 0.132812 72.671875 0.8125 C 68.117188 1.488281 62.785156 1.828125 56.671875 1.828125 C 42.265625 1.828125 30.742188 -2.617188 22.109375 -11.515625 C 13.484375 -20.421875 9.171875 -33.160156 9.171875 -49.734375 L 9.171875 -66.859375 C 9.171875 -83.441406 13.484375 -96.179688 22.109375 -105.078125 C 30.742188 -113.984375 42.265625 -118.4375 56.671875 -118.4375 C 62.785156 -118.4375 68.117188 -118.097656 72.671875 -117.421875 C 77.222656 -116.742188 80.925781 -116.066406 83.78125 -115.390625 C 85.28125 -114.972656 86.367188 -114.457031 87.046875 -113.84375 C 87.722656 -113.238281 88.0625 -112.191406 88.0625 -110.703125 L 88.0625 -92.546875 C 88.0625 -91.597656 87.6875 -90.785156 86.9375 -90.109375 C 86.195312 -89.429688 85.28125 -89.09375 84.1875 -89.09375 C 84.1875 -89.09375 84.148438 -89.09375 84.078125 -89.09375 C 84.015625 -89.09375 83.914062 -89.09375 83.78125 -89.09375 C 79.976562 -89.5 76.34375 -89.835938 72.875 -90.109375 C 69.414062 -90.378906 64.765625 -90.515625 58.921875 -90.515625 C 54.296875 -90.515625 50.351562 -88.847656 47.09375 -85.515625 C 43.832031 -82.191406 42.203125 -75.972656 42.203125 -66.859375 L 42.203125 -49.734375 C 42.203125 -40.628906 43.832031 -34.410156 47.09375 -31.078125 C 50.351562 -27.753906 54.296875 -26.09375 58.921875 -26.09375 C 64.765625 -26.09375 69.414062 -26.226562 72.875 -26.5 C 76.34375 -26.769531 79.976562 -27.109375 83.78125 -27.515625 C 83.914062 -27.515625 84.015625 -27.515625 84.078125 -27.515625 C 84.148438 -27.515625 84.1875 -27.515625 84.1875 -27.515625 C 85.28125 -27.515625 86.195312 -27.207031 86.9375 -26.59375 C 87.6875 -25.988281 88.0625 -25.144531 88.0625 -24.0625 Z M 88.0625 -5.90625 "/></g></g></g><g fill="#1c1c1c" fill-opacity="1"><g transform="translate(320.905768, 157.474434)"><g><path d="M 113.75 -114.5625 C 113.75 -113.882812 113.476562 -113.207031 112.9375 -112.53125 L 75.015625 -60.953125 L 112.734375 -4.28125 C 113.003906 -4.007812 113.140625 -3.46875 113.140625 -2.65625 C 113.140625 -0.882812 112.253906 0 110.484375 0 L 79.703125 0 C 78.617188 0 77.703125 -0.164062 76.953125 -0.5 C 76.203125 -0.84375 75.421875 -1.628906 74.609375 -2.859375 L 45.25 -50.765625 L 45.25 -4.28125 C 45.25 -3.195312 44.84375 -2.210938 44.03125 -1.328125 C 43.21875 -0.441406 42.265625 0 41.171875 0 L 16.515625 0 C 15.421875 0 14.429688 -0.441406 13.546875 -1.328125 C 12.671875 -2.210938 12.234375 -3.195312 12.234375 -4.28125 L 12.234375 -152.28125 C 12.234375 -153.363281 12.671875 -154.3125 13.546875 -155.125 C 14.429688 -155.945312 15.421875 -156.359375 16.515625 -156.359375 L 41.171875 -156.359375 C 42.265625 -156.359375 43.21875 -155.945312 44.03125 -155.125 C 44.84375 -154.3125 45.25 -153.363281 45.25 -152.28125 L 45.25 -67.0625 L 76.25 -113.75 C 77.0625 -114.976562 77.941406 -115.796875 78.890625 -116.203125 C 79.847656 -116.609375 80.734375 -116.8125 81.546875 -116.8125 L 110.703125 -116.8125 C 112.734375 -116.8125 113.75 -116.0625 113.75 -114.5625 Z M 113.75 -114.5625 "/></g></g></g></g></g><g clip-path="url(#985596a9cf)"><g transform="matrix(1, 0, 0, 1, 818, 148)"><g clip-path="url(#48fa145d98)"><g clip-path="url(#a7f1d71c46)"><path fill="#e84910" d="M 0.261719 0.046875 L 54.449219 0.046875 L 54.449219 76.039062 L 0.261719 76.039062 Z M 0.261719 0.046875 " fill-opacity="1" fill-rule="nonzero"/></g></g></g></g><g clip-path="url(#1525c33a3b)"><path fill="#ffffff" d="M 835.769531 183.230469 L 827.722656 223.96875 L 866.210938 223.96875 L 858.164062 183.230469 C 858.738281 182.835938 859.289062 182.414062 859.820312 181.957031 C 860.351562 181.503906 860.855469 181.023438 861.332031 180.519531 C 861.8125 180.011719 862.261719 179.480469 862.683594 178.925781 C 863.105469 178.371094 863.496094 177.792969 863.859375 177.199219 C 864.222656 176.601562 864.550781 175.988281 864.847656 175.355469 C 865.144531 174.726562 865.40625 174.082031 865.632812 173.421875 C 865.863281 172.761719 866.054688 172.09375 866.210938 171.414062 C 866.367188 170.734375 866.488281 170.050781 866.574219 169.359375 C 866.660156 168.667969 866.707031 167.972656 866.71875 167.273438 C 866.730469 166.578125 866.703125 165.882812 866.640625 165.1875 C 866.578125 164.492188 866.480469 163.804688 866.34375 163.121094 C 866.207031 162.433594 866.039062 161.761719 865.832031 161.09375 C 865.625 160.429688 865.382812 159.777344 865.105469 159.136719 C 864.828125 158.496094 864.519531 157.871094 864.179688 157.265625 C 863.835938 156.65625 863.464844 156.070312 863.058594 155.5 C 862.65625 154.933594 862.222656 154.386719 861.757812 153.867188 C 861.296875 153.34375 860.808594 152.847656 860.292969 152.375 C 859.777344 151.90625 859.242188 151.464844 858.679688 151.050781 C 858.117188 150.636719 857.535156 150.253906 856.933594 149.902344 C 856.332031 149.550781 855.714844 149.230469 855.078125 148.945312 C 854.441406 148.660156 853.792969 148.40625 853.128906 148.191406 C 852.46875 147.972656 851.796875 147.789062 851.113281 147.644531 C 850.433594 147.496094 849.746094 147.386719 849.050781 147.3125 C 848.359375 147.238281 847.664062 147.203125 846.964844 147.203125 C 846.269531 147.203125 845.574219 147.238281 844.878906 147.3125 C 844.1875 147.386719 843.5 147.496094 842.816406 147.644531 C 842.136719 147.789062 841.464844 147.972656 840.800781 148.191406 C 840.140625 148.40625 839.488281 148.660156 838.855469 148.945312 C 838.21875 149.230469 837.597656 149.550781 836.996094 149.902344 C 836.394531 150.253906 835.8125 150.636719 835.253906 151.050781 C 834.691406 151.464844 834.152344 151.90625 833.636719 152.375 C 833.125 152.847656 832.636719 153.34375 832.171875 153.867188 C 831.710938 154.386719 831.277344 154.933594 830.875 155.5 C 830.46875 156.070312 830.097656 156.65625 829.753906 157.265625 C 829.410156 157.871094 829.101562 158.496094 828.828125 159.136719 C 828.550781 159.777344 828.308594 160.429688 828.101562 161.09375 C 827.894531 161.761719 827.722656 162.433594 827.589844 163.121094 C 827.453125 163.804688 827.355469 164.492188 827.292969 165.1875 C 827.230469 165.882812 827.203125 166.578125 827.214844 167.273438 C 827.226562 167.972656 827.273438 168.667969 827.359375 169.359375 C 827.441406 170.050781 827.5625 170.734375 827.722656 171.414062 C 827.878906 172.09375 828.070312 172.761719 828.300781 173.421875 C 828.527344 174.082031 828.789062 174.726562 829.085938 175.355469 C 829.382812 175.988281 829.710938 176.601562 830.074219 177.199219 C 830.433594 177.792969 830.828125 178.371094 831.25 178.925781 C 831.671875 179.480469 832.121094 180.011719 832.601562 180.519531 C 833.078125 181.023438 833.582031 181.503906 834.113281 181.957031 C 834.640625 182.414062 835.195312 182.835938 835.769531 183.230469 Z M 835.769531 183.230469 " fill-opacity="1" fill-rule="nonzero"/></g><g transform="matrix(1, 0, 0, 1, 0, 95)"><g clip-path="url(#834a5a2821)"><g fill="#1c1c1c" fill-opacity="1"><g transform="translate(0.0000135, 156.591073)"><g><path d="M 111.6875 -42.953125 C 111.6875 -37.492188 110.695312 -32.140625 108.71875 -26.890625 C 106.738281 -21.640625 103.597656 -16.832031 99.296875 -12.46875 C 95.003906 -8.113281 89.28125 -4.640625 82.125 -2.046875 C 74.96875 0.542969 66.207031 1.84375 55.84375 1.84375 C 47.789062 1.84375 40.628906 1.429688 34.359375 0.609375 C 28.085938 -0.199219 22.363281 -1.289062 17.1875 -2.65625 C 16.226562 -2.925781 15.304688 -3.398438 14.421875 -4.078125 C 13.535156 -4.765625 13.09375 -5.65625 13.09375 -6.75 L 13.09375 -26.796875 C 13.09375 -29.390625 14.316406 -30.6875 16.765625 -30.6875 C 16.910156 -30.6875 17.015625 -30.6875 17.078125 -30.6875 C 17.148438 -30.6875 17.253906 -30.6875 17.390625 -30.6875 C 19.429688 -30.550781 22.222656 -30.3125 25.765625 -29.96875 C 29.316406 -29.625 33.066406 -29.347656 37.015625 -29.140625 C 40.972656 -28.941406 44.65625 -28.738281 48.0625 -28.53125 C 51.476562 -28.332031 54.207031 -28.234375 56.25 -28.234375 C 63.34375 -28.234375 68.148438 -29.390625 70.671875 -31.703125 C 73.191406 -34.023438 74.453125 -37.640625 74.453125 -42.546875 C 74.453125 -45.546875 73.53125 -48.101562 71.6875 -50.21875 C 69.851562 -52.332031 66.273438 -54.957031 60.953125 -58.09375 L 32.734375 -74.859375 C 23.179688 -80.453125 16.769531 -86.488281 13.5 -92.96875 C 10.226562 -99.445312 8.59375 -106.4375 8.59375 -113.9375 C 8.59375 -121.4375 10.191406 -128.1875 13.390625 -134.1875 C 16.597656 -140.1875 22.019531 -144.957031 29.65625 -148.5 C 37.289062 -152.039062 47.722656 -153.8125 60.953125 -153.8125 C 65.992188 -153.8125 71.378906 -153.570312 77.109375 -153.09375 C 82.835938 -152.625 88.15625 -152.046875 93.0625 -151.359375 C 97.976562 -150.679688 101.726562 -150 104.3125 -149.3125 C 105.132812 -149.175781 105.851562 -148.800781 106.46875 -148.1875 C 107.082031 -147.582031 107.390625 -146.734375 107.390625 -145.640625 L 107.390625 -124.984375 C 107.390625 -124.023438 107.148438 -123.203125 106.671875 -122.515625 C 106.191406 -121.835938 105.269531 -121.5 103.90625 -121.5 C 103.90625 -121.5 103.867188 -121.5 103.796875 -121.5 C 103.734375 -121.5 103.632812 -121.5 103.5 -121.5 C 102.132812 -121.632812 99.75 -121.800781 96.34375 -122 C 92.9375 -122.207031 89.117188 -122.445312 84.890625 -122.71875 C 80.660156 -123 76.363281 -123.238281 72 -123.4375 C 67.632812 -123.644531 63.679688 -123.75 60.140625 -123.75 C 54.273438 -123.75 50.148438 -122.863281 47.765625 -121.09375 C 45.378906 -119.320312 44.1875 -116.59375 44.1875 -112.90625 C 44.1875 -110.039062 45.101562 -107.6875 46.9375 -105.84375 C 48.78125 -104.007812 52.429688 -101.59375 57.890625 -98.59375 L 84.0625 -84.484375 C 94.707031 -78.753906 101.972656 -72.476562 105.859375 -65.65625 C 109.742188 -58.84375 111.6875 -51.273438 111.6875 -42.953125 Z M 111.6875 -42.953125 "/></g></g></g><g fill="#1c1c1c" fill-opacity="1"><g transform="translate(120.27267, 156.591073)"><g><path d="M 152.59375 -2.859375 C 152.59375 -1.773438 152.21875 -1.023438 151.46875 -0.609375 C 150.71875 -0.203125 149.929688 0 149.109375 0 L 122.109375 0 C 121.160156 0 120.378906 -0.40625 119.765625 -1.21875 C 119.148438 -2.039062 118.84375 -3 118.84375 -4.09375 L 118.84375 -89.390625 C 118.84375 -90.472656 118.5 -91.015625 117.8125 -91.015625 C 117.269531 -91.015625 116.726562 -90.539062 116.1875 -89.59375 L 97.765625 -55.84375 C 96.410156 -53.519531 94.367188 -52.359375 91.640625 -52.359375 L 75.265625 -52.359375 C 72.546875 -52.359375 70.503906 -53.519531 69.140625 -55.84375 L 50.734375 -89.59375 C 50.179688 -90.539062 49.632812 -91.015625 49.09375 -91.015625 C 48.40625 -91.015625 48.0625 -90.472656 48.0625 -89.390625 L 48.0625 -4.09375 C 48.0625 -3 47.753906 -2.039062 47.140625 -1.21875 C 46.535156 -0.40625 45.753906 0 44.796875 0 L 17.796875 0 C 16.972656 0 16.1875 -0.203125 15.4375 -0.609375 C 14.6875 -1.023438 14.3125 -1.773438 14.3125 -2.859375 L 14.3125 -145.03125 C 14.3125 -147.207031 14.992188 -148.910156 16.359375 -150.140625 C 17.722656 -151.367188 19.5 -151.984375 21.6875 -151.984375 L 40.90625 -151.984375 C 45 -151.984375 48 -150.140625 49.90625 -146.453125 L 81.203125 -88.15625 C 82.160156 -86.382812 82.910156 -85.5 83.453125 -85.5 C 84.140625 -85.5 84.890625 -86.382812 85.703125 -88.15625 L 117 -146.453125 C 118.90625 -150.140625 121.90625 -151.984375 126 -151.984375 L 145.234375 -151.984375 C 147.410156 -151.984375 149.179688 -151.332031 150.546875 -150.03125 C 151.910156 -148.738281 152.59375 -147 152.59375 -144.8125 Z M 152.59375 -2.859375 "/></g></g></g><g fill="#1c1c1c" fill-opacity="1"><g transform="translate(287.181635, 156.591073)"><g><path d="M 132.953125 -3.265625 C 132.953125 -1.085938 131.796875 0 129.484375 0 L 100.84375 0 C 98.65625 0 97.289062 -1.226562 96.75 -3.6875 L 89.390625 -37.234375 L 47.453125 -37.234375 L 40.09375 -3.6875 C 39.539062 -1.226562 38.175781 0 36 0 L 7.359375 0 C 5.046875 0 3.890625 -1.085938 3.890625 -3.265625 C 3.890625 -3.410156 3.921875 -3.582031 3.984375 -3.78125 C 4.054688 -3.988281 4.09375 -4.160156 4.09375 -4.296875 L 34.5625 -131.109375 C 36.195312 -137.660156 38.785156 -142.570312 42.328125 -145.84375 C 45.878906 -149.113281 49.972656 -151.257812 54.609375 -152.28125 C 59.242188 -153.300781 63.878906 -153.8125 68.515625 -153.8125 C 73.296875 -153.8125 77.96875 -153.300781 82.53125 -152.28125 C 87.101562 -151.257812 91.160156 -149.113281 94.703125 -145.84375 C 98.253906 -142.570312 100.78125 -137.660156 102.28125 -131.109375 L 132.75 -4.296875 C 132.75 -4.160156 132.78125 -3.988281 132.84375 -3.78125 C 132.914062 -3.582031 132.953125 -3.410156 132.953125 -3.265625 Z M 83.65625 -65.25 L 71.1875 -121.703125 C 71.050781 -122.796875 70.8125 -123.582031 70.46875 -124.0625 C 70.125 -124.539062 69.472656 -124.78125 68.515625 -124.78125 C 67.015625 -124.78125 66.0625 -123.753906 65.65625 -121.703125 L 53.1875 -65.25 Z M 83.65625 -65.25 "/></g></g></g><g fill="#1c1c1c" fill-opacity="1"><g transform="translate(424.022426, 156.591073)"><g><path d="M 131.734375 -2.453125 C 131.734375 -0.816406 130.707031 0 128.65625 0 L 97.359375 0 C 96.273438 0 95.457031 -0.441406 94.90625 -1.328125 C 94.363281 -2.210938 93.816406 -3.132812 93.265625 -4.09375 L 65.859375 -55.84375 L 63.609375 -55.640625 C 61.429688 -55.640625 58.941406 -55.707031 56.140625 -55.84375 C 53.347656 -55.976562 51 -56.046875 49.09375 -56.046875 L 49.09375 -4.09375 C 49.09375 -3 48.679688 -2.039062 47.859375 -1.21875 C 47.046875 -0.40625 46.09375 0 45 0 L 18.40625 0 C 17.3125 0 16.351562 -0.40625 15.53125 -1.21875 C 14.71875 -2.039062 14.3125 -3 14.3125 -4.09375 L 14.3125 -141.34375 C 14.3125 -144.882812 15.0625 -147.269531 16.5625 -148.5 C 18.0625 -149.726562 20.378906 -150.613281 23.515625 -151.15625 C 28.296875 -151.84375 34.570312 -152.457031 42.34375 -153 C 50.113281 -153.539062 57.679688 -153.8125 65.046875 -153.8125 C 76.640625 -153.8125 87.070312 -152.347656 96.34375 -149.421875 C 105.613281 -146.492188 112.972656 -141.550781 118.421875 -134.59375 C 123.878906 -127.632812 126.609375 -118.085938 126.609375 -105.953125 L 126.609375 -103.296875 C 126.609375 -92.523438 124.085938 -83.765625 119.046875 -77.015625 C 114.003906 -70.265625 107.734375 -65.390625 100.234375 -62.390625 L 131.109375 -4.703125 C 131.523438 -3.890625 131.734375 -3.140625 131.734375 -2.453125 Z M 91.84375 -103.296875 L 91.84375 -105.953125 C 91.84375 -112.222656 89.523438 -116.820312 84.890625 -119.75 C 80.253906 -122.6875 73.640625 -124.15625 65.046875 -124.15625 C 64.085938 -124.15625 62.484375 -124.117188 60.234375 -124.046875 C 57.984375 -123.984375 55.765625 -123.914062 53.578125 -123.84375 C 51.398438 -123.78125 49.90625 -123.679688 49.09375 -123.546875 L 49.09375 -84.265625 C 49.90625 -84.265625 51.332031 -84.226562 53.375 -84.15625 C 55.425781 -84.09375 57.472656 -84.023438 59.515625 -83.953125 C 61.566406 -83.890625 62.929688 -83.859375 63.609375 -83.859375 C 74.378906 -83.859375 81.773438 -85.359375 85.796875 -88.359375 C 89.828125 -91.359375 91.84375 -96.335938 91.84375 -103.296875 Z M 91.84375 -103.296875 "/></g></g></g><g fill="#1c1c1c" fill-opacity="1"><g transform="translate(556.567781, 156.591073)"><g><path d="M 114.953125 -127.03125 C 114.953125 -125.9375 114.507812 -125.015625 113.625 -124.265625 C 112.738281 -123.515625 111.75 -123.140625 110.65625 -123.140625 L 77.515625 -123.140625 L 77.515625 -4.09375 C 77.515625 -3 77.101562 -2.039062 76.28125 -1.21875 C 75.46875 -0.40625 74.519531 0 73.4375 0 L 46.640625 0 C 45.546875 0 44.585938 -0.40625 43.765625 -1.21875 C 42.953125 -2.039062 42.546875 -3 42.546875 -4.09375 L 42.546875 -123.140625 L 9.203125 -123.140625 C 8.109375 -123.140625 7.148438 -123.515625 6.328125 -124.265625 C 5.515625 -125.015625 5.109375 -125.9375 5.109375 -127.03125 L 5.109375 -148.09375 C 5.109375 -149.1875 5.515625 -150.109375 6.328125 -150.859375 C 7.148438 -151.609375 8.109375 -151.984375 9.203125 -151.984375 L 110.65625 -151.984375 C 111.75 -151.984375 112.738281 -151.609375 113.625 -150.859375 C 114.507812 -150.109375 114.953125 -149.1875 114.953125 -148.09375 Z M 114.953125 -127.03125 "/></g></g></g></g></g></svg>