<svg xmlns="http://www.w3.org/2000/svg" xmlns:xlink="http://www.w3.org/1999/xlink" width="1500" zoomAndPan="magnify" viewBox="0 0 1125 374.999991" height="500" preserveAspectRatio="xMidYMid meet" version="1.0"><defs><g/><clipPath id="67a8a796af"><rect x="0" width="442" y="0" height="207"/></clipPath><clipPath id="74823c2fcc"><path d="M 818.59375 148.101562 L 872.804688 148.101562 L 872.804688 224.121094 L 818.59375 224.121094 Z M 818.59375 148.101562 " clip-rule="nonzero"/></clipPath><clipPath id="bc4688c4ef"><path d="M 0.59375 0.101562 L 54.804688 0.101562 L 54.804688 76.121094 L 0.59375 76.121094 Z M 0.59375 0.101562 " clip-rule="nonzero"/></clipPath><clipPath id="3b0ec2fbb8"><rect x="0" width="55" y="0" height="77"/></clipPath><clipPath id="09a8b58f55"><path d="M 827 147.1875 L 868 147.1875 L 868 224.4375 L 827 224.4375 Z M 827 147.1875 " clip-rule="nonzero"/></clipPath><clipPath id="0f6e494f62"><rect x="0" width="678" y="0" height="206"/></clipPath></defs><g transform="matrix(1, 0, 0, 1, 683, 89)"><g clip-path="url(#67a8a796af)"><g fill="#1c1c1c" fill-opacity="1"><g transform="translate(0.690125, 157.56613)"><g><path d="M 101.359375 -5.09375 C 101.359375 -2.78125 100 -1.351562 97.28125 -0.8125 C 95.101562 -0.40625 92.078125 0 88.203125 0.40625 C 84.328125 0.8125 80.25 1.148438 75.96875 1.421875 C 71.6875 1.691406 67.710938 1.828125 64.046875 1.828125 C 57.515625 1.828125 51.253906 1.25 45.265625 0.09375 C 39.285156 -1.050781 33.953125 -3.15625 29.265625 -6.21875 C 24.578125 -9.28125 20.90625 -13.695312 18.25 -19.46875 C 15.601562 -25.25 14.28125 -32.765625 14.28125 -42.015625 L 14.28125 -147.453125 C 14.28125 -148.546875 14.6875 -149.5 15.5 -150.3125 C 16.3125 -151.125 17.265625 -151.53125 18.359375 -151.53125 L 45.078125 -151.53125 C 46.160156 -151.53125 47.109375 -151.125 47.921875 -150.3125 C 48.742188 -149.5 49.15625 -148.546875 49.15625 -147.453125 L 49.15625 -42.015625 C 49.15625 -36.710938 50.140625 -33.070312 52.109375 -31.09375 C 54.078125 -29.125 57.441406 -28.140625 62.203125 -28.140625 L 97.28125 -28.140625 C 98.375 -28.140625 99.328125 -27.734375 100.140625 -26.921875 C 100.953125 -26.109375 101.359375 -25.15625 101.359375 -24.0625 Z M 101.359375 -5.09375 "/></g></g></g><g fill="#1c1c1c" fill-opacity="1"><g transform="translate(104.498755, 157.56613)"><g><path d="M 111.15625 -51.1875 C 111.15625 -35.007812 106.800781 -22.128906 98.09375 -12.546875 C 89.394531 -2.960938 76.753906 1.828125 60.171875 1.828125 C 43.710938 1.828125 31.0625 -2.960938 22.21875 -12.546875 C 13.382812 -22.128906 8.96875 -35.007812 8.96875 -51.1875 L 8.96875 -65.46875 C 8.96875 -81.644531 13.382812 -94.523438 22.21875 -104.109375 C 31.0625 -113.703125 43.710938 -118.5 60.171875 -118.5 C 76.753906 -118.5 89.394531 -113.703125 98.09375 -104.109375 C 106.800781 -94.523438 111.15625 -81.644531 111.15625 -65.46875 Z M 78.3125 -51.1875 L 78.3125 -65.46875 C 78.3125 -82.050781 72.265625 -90.34375 60.171875 -90.34375 C 47.929688 -90.34375 41.8125 -82.050781 41.8125 -65.46875 L 41.8125 -51.1875 C 41.8125 -34.46875 47.929688 -26.109375 60.171875 -26.109375 C 72.265625 -26.109375 78.3125 -34.46875 78.3125 -51.1875 Z M 78.3125 -51.1875 "/></g></g></g><g fill="#1c1c1c" fill-opacity="1"><g transform="translate(224.623092, 157.56613)"><g><path d="M 88.109375 -5.921875 C 88.109375 -4.421875 87.765625 -3.363281 87.078125 -2.75 C 86.398438 -2.132812 85.316406 -1.625 83.828125 -1.21875 C 80.972656 -0.539062 77.265625 0.132812 72.703125 0.8125 C 68.148438 1.488281 62.816406 1.828125 56.703125 1.828125 C 42.285156 1.828125 30.757812 -2.617188 22.125 -11.515625 C 13.488281 -20.421875 9.171875 -33.171875 9.171875 -49.765625 L 9.171875 -66.890625 C 9.171875 -83.484375 13.488281 -96.234375 22.125 -105.140625 C 30.757812 -114.046875 42.285156 -118.5 56.703125 -118.5 C 62.816406 -118.5 68.148438 -118.15625 72.703125 -117.46875 C 77.265625 -116.789062 80.972656 -116.113281 83.828125 -115.4375 C 85.316406 -115.03125 86.398438 -114.519531 87.078125 -113.90625 C 87.765625 -113.289062 88.109375 -112.238281 88.109375 -110.75 L 88.109375 -92.59375 C 88.109375 -91.644531 87.734375 -90.828125 86.984375 -90.140625 C 86.234375 -89.460938 85.316406 -89.125 84.234375 -89.125 C 84.234375 -89.125 84.195312 -89.125 84.125 -89.125 C 84.0625 -89.125 83.960938 -89.125 83.828125 -89.125 C 80.015625 -89.53125 76.375 -89.867188 72.90625 -90.140625 C 69.445312 -90.421875 64.789062 -90.5625 58.9375 -90.5625 C 54.320312 -90.5625 50.378906 -88.894531 47.109375 -85.5625 C 43.847656 -82.226562 42.21875 -76.003906 42.21875 -66.890625 L 42.21875 -49.765625 C 42.21875 -40.648438 43.847656 -34.425781 47.109375 -31.09375 C 50.378906 -27.769531 54.320312 -26.109375 58.9375 -26.109375 C 64.789062 -26.109375 69.445312 -26.242188 72.90625 -26.515625 C 76.375 -26.785156 80.015625 -27.125 83.828125 -27.53125 C 83.960938 -27.53125 84.0625 -27.53125 84.125 -27.53125 C 84.195312 -27.53125 84.234375 -27.53125 84.234375 -27.53125 C 85.316406 -27.53125 86.234375 -27.222656 86.984375 -26.609375 C 87.734375 -26.003906 88.109375 -25.15625 88.109375 -24.0625 Z M 88.109375 -5.921875 "/></g></g></g><g fill="#1c1c1c" fill-opacity="1"><g transform="translate(321.293607, 157.56613)"><g><path d="M 113.8125 -114.625 C 113.8125 -113.945312 113.535156 -113.265625 112.984375 -112.578125 L 75.0625 -60.984375 L 112.78125 -4.28125 C 113.050781 -4.007812 113.1875 -3.46875 113.1875 -2.65625 C 113.1875 -0.882812 112.304688 0 110.546875 0 L 79.75 0 C 78.65625 0 77.734375 -0.164062 76.984375 -0.5 C 76.242188 -0.84375 75.460938 -1.628906 74.640625 -2.859375 L 45.28125 -50.78125 L 45.28125 -4.28125 C 45.28125 -3.195312 44.867188 -2.210938 44.046875 -1.328125 C 43.234375 -0.441406 42.285156 0 41.203125 0 L 16.515625 0 C 15.429688 0 14.445312 -0.441406 13.5625 -1.328125 C 12.675781 -2.210938 12.234375 -3.195312 12.234375 -4.28125 L 12.234375 -152.359375 C 12.234375 -153.441406 12.675781 -154.390625 13.5625 -155.203125 C 14.445312 -156.023438 15.429688 -156.4375 16.515625 -156.4375 L 41.203125 -156.4375 C 42.285156 -156.4375 43.234375 -156.023438 44.046875 -155.203125 C 44.867188 -154.390625 45.28125 -153.441406 45.28125 -152.359375 L 45.28125 -67.09375 L 76.28125 -113.8125 C 77.09375 -115.03125 77.972656 -115.84375 78.921875 -116.25 C 79.878906 -116.65625 80.765625 -116.859375 81.578125 -116.859375 L 110.75 -116.859375 C 112.789062 -116.859375 113.8125 -116.113281 113.8125 -114.625 Z M 113.8125 -114.625 "/></g></g></g></g></g><g clip-path="url(#74823c2fcc)"><g transform="matrix(1, 0, 0, 1, 818, 148)"><g clip-path="url(#3b0ec2fbb8)"><g clip-path="url(#bc4688c4ef)"><path fill="#1c1c1c" d="M 0.59375 0.101562 L 54.804688 0.101562 L 54.804688 76.121094 L 0.59375 76.121094 Z M 0.59375 0.101562 " fill-opacity="1" fill-rule="nonzero"/></g></g></g></g><g clip-path="url(#09a8b58f55)"><path fill="#ffffff" d="M 836.109375 183.292969 L 828.0625 224.042969 L 866.558594 224.042969 L 858.511719 183.292969 C 859.085938 182.898438 859.636719 182.472656 860.167969 182.019531 C 860.695312 181.566406 861.199219 181.085938 861.679688 180.578125 C 862.15625 180.070312 862.609375 179.539062 863.03125 178.984375 C 863.453125 178.429688 863.84375 177.855469 864.207031 177.257812 C 864.570312 176.664062 864.898438 176.046875 865.195312 175.417969 C 865.492188 174.785156 865.753906 174.140625 865.980469 173.480469 C 866.210938 172.824219 866.402344 172.152344 866.558594 171.472656 C 866.71875 170.792969 866.839844 170.109375 866.921875 169.417969 C 867.007812 168.722656 867.054688 168.03125 867.066406 167.332031 C 867.078125 166.636719 867.050781 165.9375 866.988281 165.246094 C 866.925781 164.550781 866.828125 163.859375 866.691406 163.175781 C 866.558594 162.492188 866.386719 161.816406 866.179688 161.152344 C 865.972656 160.484375 865.730469 159.832031 865.453125 159.191406 C 865.179688 158.550781 864.867188 157.925781 864.527344 157.320312 C 864.183594 156.710938 863.8125 156.125 863.40625 155.554688 C 863 154.988281 862.570312 154.441406 862.105469 153.917969 C 861.644531 153.398438 861.15625 152.902344 860.640625 152.429688 C 860.125 151.960938 859.585938 151.519531 859.027344 151.105469 C 858.464844 150.691406 857.882812 150.308594 857.28125 149.957031 C 856.679688 149.605469 856.058594 149.285156 855.421875 149 C 854.789062 148.710938 854.136719 148.460938 853.476562 148.242188 C 852.8125 148.023438 852.140625 147.84375 851.457031 147.695312 C 850.777344 147.550781 850.089844 147.441406 849.394531 147.367188 C 848.703125 147.292969 848.007812 147.253906 847.308594 147.253906 C 846.613281 147.253906 845.917969 147.292969 845.222656 147.367188 C 844.527344 147.441406 843.839844 147.550781 843.160156 147.695312 C 842.476562 147.84375 841.804688 148.023438 841.144531 148.242188 C 840.480469 148.460938 839.832031 148.710938 839.195312 149 C 838.558594 149.285156 837.941406 149.605469 837.339844 149.957031 C 836.734375 150.308594 836.152344 150.691406 835.59375 151.105469 C 835.03125 151.519531 834.492188 151.960938 833.976562 152.429688 C 833.464844 152.902344 832.972656 153.398438 832.511719 153.917969 C 832.050781 154.441406 831.617188 154.988281 831.210938 155.554688 C 830.808594 156.125 830.433594 156.710938 830.09375 157.320312 C 829.75 157.925781 829.441406 158.550781 829.164062 159.191406 C 828.886719 159.832031 828.648438 160.484375 828.441406 161.152344 C 828.234375 161.816406 828.0625 162.492188 827.925781 163.175781 C 827.789062 163.859375 827.691406 164.550781 827.628906 165.246094 C 827.566406 165.9375 827.539062 166.636719 827.550781 167.332031 C 827.5625 168.03125 827.609375 168.722656 827.695312 169.417969 C 827.78125 170.109375 827.902344 170.792969 828.058594 171.472656 C 828.214844 172.152344 828.410156 172.824219 828.636719 173.480469 C 828.867188 174.140625 829.128906 174.785156 829.425781 175.417969 C 829.722656 176.046875 830.050781 176.664062 830.410156 177.257812 C 830.773438 177.855469 831.164062 178.429688 831.585938 178.984375 C 832.011719 179.539062 832.460938 180.070312 832.9375 180.578125 C 833.417969 181.085938 833.921875 181.566406 834.453125 182.019531 C 834.980469 182.472656 835.535156 182.898438 836.109375 183.292969 Z M 836.109375 183.292969 " fill-opacity="1" fill-rule="nonzero"/></g><g transform="matrix(1, 0, 0, 1, 0, 94)"><g clip-path="url(#0f6e494f62)"><g fill="#1c1c1c" fill-opacity="1"><g transform="translate(0.0161625, 157.101806)"><g><path d="M 111.71875 -42.96875 C 111.71875 -37.507812 110.726562 -32.15625 108.75 -26.90625 C 106.78125 -21.65625 103.644531 -16.847656 99.34375 -12.484375 C 95.050781 -8.117188 89.320312 -4.640625 82.15625 -2.046875 C 75 0.542969 66.234375 1.84375 55.859375 1.84375 C 47.816406 1.84375 40.65625 1.429688 34.375 0.609375 C 28.101562 -0.199219 22.375 -1.289062 17.1875 -2.65625 C 16.226562 -2.925781 15.304688 -3.398438 14.421875 -4.078125 C 13.535156 -4.765625 13.09375 -5.65625 13.09375 -6.75 L 13.09375 -26.8125 C 13.09375 -29.394531 14.320312 -30.6875 16.78125 -30.6875 C 16.914062 -30.6875 17.015625 -30.6875 17.078125 -30.6875 C 17.148438 -30.6875 17.253906 -30.6875 17.390625 -30.6875 C 19.441406 -30.550781 22.238281 -30.3125 25.78125 -29.96875 C 29.332031 -29.632812 33.082031 -29.363281 37.03125 -29.15625 C 40.988281 -28.957031 44.671875 -28.753906 48.078125 -28.546875 C 51.492188 -28.335938 54.222656 -28.234375 56.265625 -28.234375 C 63.359375 -28.234375 68.164062 -29.394531 70.6875 -31.71875 C 73.21875 -34.039062 74.484375 -37.65625 74.484375 -42.5625 C 74.484375 -45.5625 73.5625 -48.117188 71.71875 -50.234375 C 69.875 -52.347656 66.296875 -54.972656 60.984375 -58.109375 L 32.734375 -74.890625 C 23.191406 -80.484375 16.78125 -86.519531 13.5 -93 C 10.226562 -99.476562 8.59375 -106.46875 8.59375 -113.96875 C 8.59375 -121.476562 10.195312 -128.234375 13.40625 -134.234375 C 16.613281 -140.234375 22.035156 -145.003906 29.671875 -148.546875 C 37.304688 -152.097656 47.742188 -153.875 60.984375 -153.875 C 66.023438 -153.875 71.410156 -153.632812 77.140625 -153.15625 C 82.867188 -152.6875 88.1875 -152.109375 93.09375 -151.421875 C 98.007812 -150.742188 101.765625 -150.0625 104.359375 -149.375 C 105.179688 -149.238281 105.894531 -148.863281 106.5 -148.25 C 107.113281 -147.632812 107.421875 -146.78125 107.421875 -145.6875 L 107.421875 -125.03125 C 107.421875 -124.070312 107.179688 -123.25 106.703125 -122.5625 C 106.234375 -121.882812 105.316406 -121.546875 103.953125 -121.546875 C 103.953125 -121.546875 103.914062 -121.546875 103.84375 -121.546875 C 103.78125 -121.546875 103.679688 -121.546875 103.546875 -121.546875 C 102.179688 -121.679688 99.789062 -121.847656 96.375 -122.046875 C 92.96875 -122.253906 89.148438 -122.492188 84.921875 -122.765625 C 80.691406 -123.046875 76.394531 -123.285156 72.03125 -123.484375 C 67.664062 -123.691406 63.707031 -123.796875 60.15625 -123.796875 C 54.289062 -123.796875 50.164062 -122.910156 47.78125 -121.140625 C 45.394531 -119.367188 44.203125 -116.640625 44.203125 -112.953125 C 44.203125 -110.085938 45.117188 -107.734375 46.953125 -105.890625 C 48.796875 -104.046875 52.445312 -101.625 57.90625 -98.625 L 84.09375 -84.515625 C 94.738281 -78.785156 102.003906 -72.507812 105.890625 -65.6875 C 109.773438 -58.863281 111.71875 -51.289062 111.71875 -42.96875 Z M 111.71875 -42.96875 "/></g></g></g><g fill="#1c1c1c" fill-opacity="1"><g transform="translate(120.325883, 157.101806)"><g><path d="M 152.65625 -2.859375 C 152.65625 -1.773438 152.28125 -1.023438 151.53125 -0.609375 C 150.78125 -0.203125 149.992188 0 149.171875 0 L 122.15625 0 C 121.207031 0 120.425781 -0.40625 119.8125 -1.21875 C 119.195312 -2.039062 118.890625 -3 118.890625 -4.09375 L 118.890625 -89.421875 C 118.890625 -90.515625 118.546875 -91.0625 117.859375 -91.0625 C 117.316406 -91.0625 116.773438 -90.582031 116.234375 -89.625 L 97.8125 -55.859375 C 96.445312 -53.546875 94.398438 -52.390625 91.671875 -52.390625 L 75.296875 -52.390625 C 72.566406 -52.390625 70.519531 -53.546875 69.15625 -55.859375 L 50.75 -89.625 C 50.195312 -90.582031 49.648438 -91.0625 49.109375 -91.0625 C 48.429688 -91.0625 48.09375 -90.515625 48.09375 -89.421875 L 48.09375 -4.09375 C 48.09375 -3 47.785156 -2.039062 47.171875 -1.21875 C 46.554688 -0.40625 45.769531 0 44.8125 0 L 17.796875 0 C 16.984375 0 16.203125 -0.203125 15.453125 -0.609375 C 14.703125 -1.023438 14.328125 -1.773438 14.328125 -2.859375 L 14.328125 -145.078125 C 14.328125 -147.265625 15.007812 -148.96875 16.375 -150.1875 C 17.738281 -151.414062 19.507812 -152.03125 21.6875 -152.03125 L 40.921875 -152.03125 C 45.015625 -152.03125 48.015625 -150.191406 49.921875 -146.515625 L 81.234375 -88.1875 C 82.191406 -86.414062 82.941406 -85.53125 83.484375 -85.53125 C 84.171875 -85.53125 84.921875 -86.414062 85.734375 -88.1875 L 117.046875 -146.515625 C 118.953125 -150.191406 121.953125 -152.03125 126.046875 -152.03125 L 145.28125 -152.03125 C 147.46875 -152.03125 149.242188 -151.378906 150.609375 -150.078125 C 151.972656 -148.785156 152.65625 -147.050781 152.65625 -144.875 Z M 152.65625 -2.859375 "/></g></g></g><g fill="#1c1c1c" fill-opacity="1"><g transform="translate(287.286314, 157.101806)"><g><path d="M 133 -3.28125 C 133 -1.09375 131.84375 0 129.53125 0 L 100.875 0 C 98.695312 0 97.332031 -1.226562 96.78125 -3.6875 L 89.421875 -37.234375 L 47.46875 -37.234375 L 40.109375 -3.6875 C 39.554688 -1.226562 38.191406 0 36.015625 0 L 7.359375 0 C 5.046875 0 3.890625 -1.09375 3.890625 -3.28125 C 3.890625 -3.414062 3.921875 -3.582031 3.984375 -3.78125 C 4.054688 -3.988281 4.09375 -4.160156 4.09375 -4.296875 L 34.578125 -131.171875 C 36.210938 -137.710938 38.800781 -142.617188 42.34375 -145.890625 C 45.894531 -149.171875 49.988281 -151.320312 54.625 -152.34375 C 59.269531 -153.363281 63.910156 -153.875 68.546875 -153.875 C 73.328125 -153.875 78 -153.363281 82.5625 -152.34375 C 87.132812 -151.320312 91.191406 -149.171875 94.734375 -145.890625 C 98.285156 -142.617188 100.8125 -137.710938 102.3125 -131.171875 L 132.796875 -4.296875 C 132.796875 -4.160156 132.828125 -3.988281 132.890625 -3.78125 C 132.960938 -3.582031 133 -3.414062 133 -3.28125 Z M 83.6875 -65.28125 L 71.203125 -121.75 C 71.066406 -122.84375 70.828125 -123.628906 70.484375 -124.109375 C 70.148438 -124.585938 69.503906 -124.828125 68.546875 -124.828125 C 67.046875 -124.828125 66.09375 -123.800781 65.6875 -121.75 L 53.203125 -65.28125 Z M 83.6875 -65.28125 "/></g></g></g><g fill="#1c1c1c" fill-opacity="1"><g transform="translate(424.169307, 157.101806)"><g><path d="M 131.78125 -2.453125 C 131.78125 -0.816406 130.753906 0 128.703125 0 L 97.40625 0 C 96.3125 0 95.488281 -0.441406 94.9375 -1.328125 C 94.394531 -2.210938 93.851562 -3.132812 93.3125 -4.09375 L 65.890625 -55.859375 L 63.640625 -55.65625 C 61.453125 -55.65625 58.957031 -55.722656 56.15625 -55.859375 C 53.363281 -55.992188 51.015625 -56.0625 49.109375 -56.0625 L 49.109375 -4.09375 C 49.109375 -3 48.695312 -2.039062 47.875 -1.21875 C 47.0625 -0.40625 46.109375 0 45.015625 0 L 18.421875 0 C 17.328125 0 16.367188 -0.40625 15.546875 -1.21875 C 14.734375 -2.039062 14.328125 -3 14.328125 -4.09375 L 14.328125 -141.390625 C 14.328125 -144.941406 15.078125 -147.332031 16.578125 -148.5625 C 18.078125 -149.789062 20.394531 -150.675781 23.53125 -151.21875 C 28.300781 -151.894531 34.570312 -152.503906 42.34375 -153.046875 C 50.125 -153.597656 57.703125 -153.875 65.078125 -153.875 C 76.671875 -153.875 87.101562 -152.40625 96.375 -149.46875 C 105.65625 -146.539062 113.019531 -141.597656 118.46875 -134.640625 C 123.925781 -127.679688 126.65625 -118.132812 126.65625 -106 L 126.65625 -103.328125 C 126.65625 -92.554688 124.128906 -83.789062 119.078125 -77.03125 C 114.035156 -70.28125 107.765625 -65.40625 100.265625 -62.40625 L 131.171875 -4.703125 C 131.578125 -3.890625 131.78125 -3.140625 131.78125 -2.453125 Z M 91.875 -103.328125 L 91.875 -106 C 91.875 -112.269531 89.554688 -116.867188 84.921875 -119.796875 C 80.285156 -122.734375 73.671875 -124.203125 65.078125 -124.203125 C 64.117188 -124.203125 62.515625 -124.164062 60.265625 -124.09375 C 58.015625 -124.03125 55.796875 -123.960938 53.609375 -123.890625 C 51.429688 -123.828125 49.929688 -123.726562 49.109375 -123.59375 L 49.109375 -84.3125 C 49.929688 -84.3125 51.363281 -84.273438 53.40625 -84.203125 C 55.445312 -84.128906 57.488281 -84.054688 59.53125 -83.984375 C 61.582031 -83.921875 62.953125 -83.890625 63.640625 -83.890625 C 74.410156 -83.890625 81.804688 -85.390625 85.828125 -88.390625 C 89.859375 -91.398438 91.875 -96.378906 91.875 -103.328125 Z M 91.875 -103.328125 "/></g></g></g><g fill="#1c1c1c" fill-opacity="1"><g transform="translate(556.755172, 157.101806)"><g><path d="M 115 -127.078125 C 115 -125.984375 114.554688 -125.0625 113.671875 -124.3125 C 112.785156 -123.5625 111.796875 -123.1875 110.703125 -123.1875 L 77.546875 -123.1875 L 77.546875 -4.09375 C 77.546875 -3 77.132812 -2.039062 76.3125 -1.21875 C 75.5 -0.40625 74.546875 0 73.453125 0 L 46.65625 0 C 45.5625 0 44.601562 -0.40625 43.78125 -1.21875 C 42.96875 -2.039062 42.5625 -3 42.5625 -4.09375 L 42.5625 -123.1875 L 9.203125 -123.1875 C 8.117188 -123.1875 7.164062 -123.5625 6.34375 -124.3125 C 5.519531 -125.0625 5.109375 -125.984375 5.109375 -127.078125 L 5.109375 -148.140625 C 5.109375 -149.234375 5.519531 -150.15625 6.34375 -150.90625 C 7.164062 -151.65625 8.117188 -152.03125 9.203125 -152.03125 L 110.703125 -152.03125 C 111.796875 -152.03125 112.785156 -151.65625 113.671875 -150.90625 C 114.554688 -150.15625 115 -149.234375 115 -148.140625 Z M 115 -127.078125 "/></g></g></g></g></g></svg>