<svg xmlns="http://www.w3.org/2000/svg" xmlns:xlink="http://www.w3.org/1999/xlink" width="1500" zoomAndPan="magnify" viewBox="0 0 1125 374.999991" height="500" preserveAspectRatio="xMidYMid meet" version="1.0"><defs><g/><clipPath id="7b44d2b390"><rect x="0" width="442" y="0" height="207"/></clipPath><clipPath id="245e444fd6"><path d="M 818.332031 148.074219 L 872.527344 148.074219 L 872.527344 224.074219 L 818.332031 224.074219 Z M 818.332031 148.074219 " clip-rule="nonzero"/></clipPath><clipPath id="58f70f8548"><path d="M 0.332031 0.0742188 L 54.527344 0.0742188 L 54.527344 76.074219 L 0.332031 76.074219 Z M 0.332031 0.0742188 " clip-rule="nonzero"/></clipPath><clipPath id="b50708d2ad"><rect x="0" width="55" y="0" height="77"/></clipPath><clipPath id="547eadb3c6"><path d="M 827 147.164062 L 867 147.164062 L 867 224.414062 L 827 224.414062 Z M 827 147.164062 " clip-rule="nonzero"/></clipPath><clipPath id="cf14f11904"><rect x="0" width="677" y="0" height="206"/></clipPath></defs><g transform="matrix(1, 0, 0, 1, 683, 89)"><g clip-path="url(#7b44d2b390)"><g fill="#fefefe" fill-opacity="1"><g transform="translate(0.472156, 157.51037)"><g><path d="M 101.328125 -5.09375 C 101.328125 -2.78125 99.96875 -1.351562 97.25 -0.8125 C 95.082031 -0.40625 92.0625 0 88.1875 0.40625 C 84.3125 0.8125 80.234375 1.148438 75.953125 1.421875 C 71.671875 1.691406 67.691406 1.828125 64.015625 1.828125 C 57.492188 1.828125 51.242188 1.25 45.265625 0.09375 C 39.285156 -1.050781 33.945312 -3.15625 29.25 -6.21875 C 24.5625 -9.28125 20.890625 -13.695312 18.234375 -19.46875 C 15.585938 -25.25 14.265625 -32.757812 14.265625 -42 L 14.265625 -147.40625 C 14.265625 -148.5 14.671875 -149.453125 15.484375 -150.265625 C 16.304688 -151.078125 17.257812 -151.484375 18.34375 -151.484375 L 45.0625 -151.484375 C 46.144531 -151.484375 47.09375 -151.078125 47.90625 -150.265625 C 48.726562 -149.453125 49.140625 -148.5 49.140625 -147.40625 L 49.140625 -42 C 49.140625 -36.695312 50.125 -33.0625 52.09375 -31.09375 C 54.0625 -29.125 57.425781 -28.140625 62.1875 -28.140625 L 97.25 -28.140625 C 98.34375 -28.140625 99.296875 -27.726562 100.109375 -26.90625 C 100.921875 -26.09375 101.328125 -25.144531 101.328125 -24.0625 Z M 101.328125 -5.09375 "/></g></g></g><g fill="#fefefe" fill-opacity="1"><g transform="translate(104.247682, 157.51037)"><g><path d="M 111.125 -51.171875 C 111.125 -34.992188 106.769531 -22.113281 98.0625 -12.53125 C 89.363281 -2.957031 76.722656 1.828125 60.140625 1.828125 C 43.703125 1.828125 31.0625 -2.957031 22.21875 -12.53125 C 13.382812 -22.113281 8.96875 -34.992188 8.96875 -51.171875 L 8.96875 -65.453125 C 8.96875 -81.628906 13.382812 -94.503906 22.21875 -104.078125 C 31.0625 -113.660156 43.703125 -118.453125 60.140625 -118.453125 C 76.722656 -118.453125 89.363281 -113.660156 98.0625 -104.078125 C 106.769531 -94.503906 111.125 -81.628906 111.125 -65.453125 Z M 78.296875 -51.171875 L 78.296875 -65.453125 C 78.296875 -82.035156 72.242188 -90.328125 60.140625 -90.328125 C 47.910156 -90.328125 41.796875 -82.035156 41.796875 -65.453125 L 41.796875 -51.171875 C 41.796875 -34.453125 47.910156 -26.09375 60.140625 -26.09375 C 72.242188 -26.09375 78.296875 -34.453125 78.296875 -51.171875 Z M 78.296875 -51.171875 "/></g></g></g><g fill="#fefefe" fill-opacity="1"><g transform="translate(224.333712, 157.51037)"><g><path d="M 88.078125 -5.90625 C 88.078125 -4.414062 87.738281 -3.363281 87.0625 -2.75 C 86.382812 -2.132812 85.296875 -1.625 83.796875 -1.21875 C 80.941406 -0.539062 77.238281 0.132812 72.6875 0.8125 C 68.132812 1.488281 62.800781 1.828125 56.6875 1.828125 C 42.269531 1.828125 30.742188 -2.617188 22.109375 -11.515625 C 13.484375 -20.421875 9.171875 -33.164062 9.171875 -49.75 L 9.171875 -66.875 C 9.171875 -83.457031 13.484375 -96.195312 22.109375 -105.09375 C 30.742188 -114 42.269531 -118.453125 56.6875 -118.453125 C 62.800781 -118.453125 68.132812 -118.113281 72.6875 -117.4375 C 77.238281 -116.757812 80.941406 -116.082031 83.796875 -115.40625 C 85.296875 -115 86.382812 -114.488281 87.0625 -113.875 C 87.738281 -113.257812 88.078125 -112.207031 88.078125 -110.71875 L 88.078125 -92.5625 C 88.078125 -91.613281 87.703125 -90.796875 86.953125 -90.109375 C 86.210938 -89.429688 85.296875 -89.09375 84.203125 -89.09375 C 84.203125 -89.09375 84.164062 -89.09375 84.09375 -89.09375 C 84.03125 -89.09375 83.929688 -89.09375 83.796875 -89.09375 C 79.992188 -89.507812 76.359375 -89.851562 72.890625 -90.125 C 69.421875 -90.394531 64.765625 -90.53125 58.921875 -90.53125 C 54.296875 -90.53125 50.351562 -88.863281 47.09375 -85.53125 C 43.832031 -82.195312 42.203125 -75.976562 42.203125 -66.875 L 42.203125 -49.75 C 42.203125 -40.644531 43.832031 -34.425781 47.09375 -31.09375 C 50.351562 -27.757812 54.296875 -26.09375 58.921875 -26.09375 C 64.765625 -26.09375 69.421875 -26.226562 72.890625 -26.5 C 76.359375 -26.769531 79.992188 -27.113281 83.796875 -27.53125 C 83.929688 -27.53125 84.03125 -27.53125 84.09375 -27.53125 C 84.164062 -27.53125 84.203125 -27.53125 84.203125 -27.53125 C 85.296875 -27.53125 86.210938 -27.222656 86.953125 -26.609375 C 87.703125 -25.992188 88.078125 -25.144531 88.078125 -24.0625 Z M 88.078125 -5.90625 "/></g></g></g><g fill="#fefefe" fill-opacity="1"><g transform="translate(320.973399, 157.51037)"><g><path d="M 113.765625 -114.59375 C 113.765625 -113.90625 113.492188 -113.222656 112.953125 -112.546875 L 75.03125 -60.96875 L 112.75 -4.28125 C 113.019531 -4.007812 113.15625 -3.46875 113.15625 -2.65625 C 113.15625 -0.882812 112.273438 0 110.515625 0 L 79.71875 0 C 78.632812 0 77.71875 -0.164062 76.96875 -0.5 C 76.21875 -0.84375 75.4375 -1.628906 74.625 -2.859375 L 45.265625 -50.765625 L 45.265625 -4.28125 C 45.265625 -3.195312 44.851562 -2.210938 44.03125 -1.328125 C 43.21875 -0.441406 42.269531 0 41.1875 0 L 16.515625 0 C 15.429688 0 14.445312 -0.441406 13.5625 -1.328125 C 12.675781 -2.210938 12.234375 -3.195312 12.234375 -4.28125 L 12.234375 -152.3125 C 12.234375 -153.394531 12.675781 -154.34375 13.5625 -155.15625 C 14.445312 -155.976562 15.429688 -156.390625 16.515625 -156.390625 L 41.1875 -156.390625 C 42.269531 -156.390625 43.21875 -155.976562 44.03125 -155.15625 C 44.851562 -154.34375 45.265625 -153.394531 45.265625 -152.3125 L 45.265625 -67.078125 L 76.25 -113.765625 C 77.070312 -114.992188 77.957031 -115.8125 78.90625 -116.21875 C 79.851562 -116.625 80.738281 -116.828125 81.5625 -116.828125 L 110.71875 -116.828125 C 112.75 -116.828125 113.765625 -116.082031 113.765625 -114.59375 Z M 113.765625 -114.59375 "/></g></g></g></g></g><g clip-path="url(#245e444fd6)"><g transform="matrix(1, 0, 0, 1, 818, 148)"><g clip-path="url(#b50708d2ad)"><g clip-path="url(#58f70f8548)"><path fill="#fefefe" d="M 0.332031 0.0742188 L 54.527344 0.0742188 L 54.527344 76.070312 L 0.332031 76.070312 Z M 0.332031 0.0742188 " fill-opacity="1" fill-rule="nonzero"/></g></g></g></g><g clip-path="url(#547eadb3c6)"><path fill="#000000" d="M 835.8125 183.425781 L 827.792969 224.347656 L 866.171875 224.347656 L 858.148438 183.425781 C 858.722656 183.027344 859.273438 182.601562 859.800781 182.144531 C 860.328125 181.6875 860.832031 181.207031 861.308594 180.699219 C 861.785156 180.1875 862.234375 179.65625 862.65625 179.097656 C 863.078125 178.539062 863.46875 177.960938 863.828125 177.363281 C 864.1875 176.765625 864.515625 176.148438 864.8125 175.511719 C 865.109375 174.878906 865.371094 174.230469 865.597656 173.570312 C 865.824219 172.90625 866.015625 172.234375 866.175781 171.554688 C 866.332031 170.871094 866.453125 170.183594 866.535156 169.488281 C 866.621094 168.792969 866.667969 168.09375 866.679688 167.394531 C 866.691406 166.691406 866.664062 165.996094 866.601562 165.296875 C 866.539062 164.597656 866.441406 163.90625 866.304688 163.21875 C 866.171875 162.53125 866 161.855469 865.792969 161.1875 C 865.589844 160.515625 865.347656 159.859375 865.070312 159.21875 C 864.796875 158.574219 864.488281 157.949219 864.148438 157.335938 C 863.804688 156.726562 863.433594 156.136719 863.03125 155.566406 C 862.625 154.996094 862.195312 154.449219 861.734375 153.921875 C 861.273438 153.398438 860.785156 152.898438 860.273438 152.425781 C 859.757812 151.957031 859.222656 151.511719 858.664062 151.097656 C 858.101562 150.679688 857.523438 150.296875 856.921875 149.941406 C 856.324219 149.589844 855.707031 149.269531 855.070312 148.980469 C 854.4375 148.695312 853.789062 148.441406 853.128906 148.222656 C 852.46875 148.003906 851.796875 147.820312 851.117188 147.671875 C 850.4375 147.527344 849.753906 147.414062 849.0625 147.339844 C 848.371094 147.269531 847.675781 147.230469 846.980469 147.230469 C 846.285156 147.230469 845.59375 147.269531 844.902344 147.339844 C 844.210938 147.414062 843.523438 147.527344 842.84375 147.671875 C 842.164062 147.820312 841.496094 148.003906 840.832031 148.222656 C 840.171875 148.441406 839.527344 148.695312 838.890625 148.980469 C 838.257812 149.269531 837.640625 149.589844 837.039062 149.941406 C 836.441406 150.296875 835.859375 150.679688 835.300781 151.097656 C 834.738281 151.511719 834.203125 151.957031 833.691406 152.425781 C 833.175781 152.898438 832.691406 153.398438 832.230469 153.921875 C 831.769531 154.449219 831.335938 154.996094 830.933594 155.566406 C 830.53125 156.136719 830.15625 156.726562 829.816406 157.335938 C 829.476562 157.949219 829.167969 158.574219 828.890625 159.21875 C 828.617188 159.859375 828.375 160.515625 828.167969 161.1875 C 827.960938 161.855469 827.792969 162.53125 827.65625 163.21875 C 827.519531 163.90625 827.421875 164.597656 827.359375 165.296875 C 827.296875 165.996094 827.273438 166.691406 827.285156 167.394531 C 827.292969 168.09375 827.34375 168.792969 827.425781 169.488281 C 827.511719 170.183594 827.632812 170.871094 827.789062 171.554688 C 827.945312 172.234375 828.136719 172.90625 828.367188 173.570312 C 828.59375 174.230469 828.855469 174.878906 829.148438 175.511719 C 829.445312 176.148438 829.773438 176.765625 830.132812 177.363281 C 830.496094 177.960938 830.886719 178.539062 831.308594 179.097656 C 831.726562 179.65625 832.175781 180.1875 832.65625 180.699219 C 833.132812 181.207031 833.632812 181.6875 834.164062 182.144531 C 834.691406 182.601562 835.242188 183.027344 835.8125 183.425781 Z M 835.8125 183.425781 " fill-opacity="1" fill-rule="nonzero"/></g><g transform="matrix(1, 0, 0, 1, 0, 94)"><g clip-path="url(#cf14f11904)"><g fill="#fefefe" fill-opacity="1"><g transform="translate(0.0161574, 157.044574)"><g><path d="M 111.6875 -42.953125 C 111.6875 -37.503906 110.695312 -32.15625 108.71875 -26.90625 C 106.75 -21.65625 103.613281 -16.847656 99.3125 -12.484375 C 95.019531 -8.117188 89.289062 -4.640625 82.125 -2.046875 C 74.96875 0.542969 66.207031 1.84375 55.84375 1.84375 C 47.800781 1.84375 40.640625 1.429688 34.359375 0.609375 C 28.085938 -0.199219 22.363281 -1.289062 17.1875 -2.65625 C 16.226562 -2.925781 15.304688 -3.398438 14.421875 -4.078125 C 13.535156 -4.765625 13.09375 -5.65625 13.09375 -6.75 L 13.09375 -26.796875 C 13.09375 -29.390625 14.320312 -30.6875 16.78125 -30.6875 C 16.914062 -30.6875 17.015625 -30.6875 17.078125 -30.6875 C 17.148438 -30.6875 17.253906 -30.6875 17.390625 -30.6875 C 19.429688 -30.550781 22.222656 -30.3125 25.765625 -29.96875 C 29.316406 -29.625 33.066406 -29.347656 37.015625 -29.140625 C 40.972656 -28.941406 44.65625 -28.738281 48.0625 -28.53125 C 51.476562 -28.332031 54.207031 -28.234375 56.25 -28.234375 C 63.34375 -28.234375 68.148438 -29.390625 70.671875 -31.703125 C 73.191406 -34.023438 74.453125 -37.640625 74.453125 -42.546875 C 74.453125 -45.546875 73.53125 -48.101562 71.6875 -50.21875 C 69.851562 -52.332031 66.273438 -54.957031 60.953125 -58.09375 L 32.734375 -74.875 C 23.179688 -80.457031 16.769531 -86.488281 13.5 -92.96875 C 10.226562 -99.445312 8.59375 -106.4375 8.59375 -113.9375 C 8.59375 -121.4375 10.191406 -128.1875 13.390625 -134.1875 C 16.597656 -140.1875 22.019531 -144.957031 29.65625 -148.5 C 37.289062 -152.050781 47.722656 -153.828125 60.953125 -153.828125 C 66.003906 -153.828125 71.394531 -153.585938 77.125 -153.109375 C 82.851562 -152.640625 88.171875 -152.0625 93.078125 -151.375 C 97.984375 -150.695312 101.734375 -150.015625 104.328125 -149.328125 C 105.140625 -149.191406 105.851562 -148.816406 106.46875 -148.203125 C 107.082031 -147.585938 107.390625 -146.738281 107.390625 -145.65625 L 107.390625 -124.984375 C 107.390625 -124.035156 107.148438 -123.21875 106.671875 -122.53125 C 106.203125 -121.851562 105.285156 -121.515625 103.921875 -121.515625 C 103.921875 -121.515625 103.882812 -121.515625 103.8125 -121.515625 C 103.75 -121.515625 103.648438 -121.515625 103.515625 -121.515625 C 102.148438 -121.648438 99.757812 -121.816406 96.34375 -122.015625 C 92.9375 -122.222656 89.117188 -122.460938 84.890625 -122.734375 C 80.660156 -123.003906 76.363281 -123.242188 72 -123.453125 C 67.632812 -123.660156 63.679688 -123.765625 60.140625 -123.765625 C 54.273438 -123.765625 50.148438 -122.875 47.765625 -121.09375 C 45.378906 -119.320312 44.1875 -116.597656 44.1875 -112.921875 C 44.1875 -110.054688 45.101562 -107.703125 46.9375 -105.859375 C 48.78125 -104.015625 52.429688 -101.59375 57.890625 -98.59375 L 84.078125 -84.484375 C 94.710938 -78.753906 101.972656 -72.476562 105.859375 -65.65625 C 109.742188 -58.84375 111.6875 -51.273438 111.6875 -42.953125 Z M 111.6875 -42.953125 "/></g></g></g><g fill="#fefefe" fill-opacity="1"><g transform="translate(120.287511, 157.044574)"><g><path d="M 152.609375 -2.859375 C 152.609375 -1.773438 152.234375 -1.023438 151.484375 -0.609375 C 150.734375 -0.203125 149.945312 0 149.125 0 L 122.125 0 C 121.164062 0 120.378906 -0.40625 119.765625 -1.21875 C 119.148438 -2.039062 118.84375 -3 118.84375 -4.09375 L 118.84375 -89.390625 C 118.84375 -90.484375 118.503906 -91.03125 117.828125 -91.03125 C 117.285156 -91.03125 116.738281 -90.550781 116.1875 -89.59375 L 97.78125 -55.84375 C 96.414062 -53.53125 94.367188 -52.375 91.640625 -52.375 L 75.28125 -52.375 C 72.550781 -52.375 70.503906 -53.53125 69.140625 -55.84375 L 50.734375 -89.59375 C 50.179688 -90.550781 49.632812 -91.03125 49.09375 -91.03125 C 48.414062 -91.03125 48.078125 -90.484375 48.078125 -89.390625 L 48.078125 -4.09375 C 48.078125 -3 47.769531 -2.039062 47.15625 -1.21875 C 46.539062 -0.40625 45.753906 0 44.796875 0 L 17.796875 0 C 16.972656 0 16.1875 -0.203125 15.4375 -0.609375 C 14.6875 -1.023438 14.3125 -1.773438 14.3125 -2.859375 L 14.3125 -145.03125 C 14.3125 -147.21875 14.992188 -148.921875 16.359375 -150.140625 C 17.722656 -151.367188 19.5 -151.984375 21.6875 -151.984375 L 40.90625 -151.984375 C 45 -151.984375 48 -150.144531 49.90625 -146.46875 L 81.21875 -88.171875 C 82.164062 -86.390625 82.914062 -85.5 83.46875 -85.5 C 84.144531 -85.5 84.894531 -86.390625 85.71875 -88.171875 L 117.015625 -146.46875 C 118.921875 -150.144531 121.921875 -151.984375 126.015625 -151.984375 L 145.234375 -151.984375 C 147.421875 -151.984375 149.195312 -151.335938 150.5625 -150.046875 C 151.925781 -148.753906 152.609375 -147.015625 152.609375 -144.828125 Z M 152.609375 -2.859375 "/></g></g></g><g fill="#fefefe" fill-opacity="1"><g transform="translate(287.194699, 157.044574)"><g><path d="M 132.96875 -3.265625 C 132.96875 -1.085938 131.804688 0 129.484375 0 L 100.84375 0 C 98.664062 0 97.304688 -1.226562 96.765625 -3.6875 L 89.390625 -37.234375 L 47.453125 -37.234375 L 40.09375 -3.6875 C 39.550781 -1.226562 38.1875 0 36 0 L 7.359375 0 C 5.046875 0 3.890625 -1.085938 3.890625 -3.265625 C 3.890625 -3.410156 3.921875 -3.582031 3.984375 -3.78125 C 4.054688 -3.988281 4.09375 -4.160156 4.09375 -4.296875 L 34.578125 -131.125 C 36.210938 -137.664062 38.800781 -142.570312 42.34375 -145.84375 C 45.882812 -149.125 49.972656 -151.273438 54.609375 -152.296875 C 59.253906 -153.316406 63.894531 -153.828125 68.53125 -153.828125 C 73.300781 -153.828125 77.96875 -153.316406 82.53125 -152.296875 C 87.101562 -151.273438 91.160156 -149.125 94.703125 -145.84375 C 98.253906 -142.570312 100.78125 -137.664062 102.28125 -131.125 L 132.765625 -4.296875 C 132.765625 -4.160156 132.796875 -3.988281 132.859375 -3.78125 C 132.929688 -3.582031 132.96875 -3.410156 132.96875 -3.265625 Z M 83.671875 -65.25 L 71.1875 -121.71875 C 71.050781 -122.800781 70.8125 -123.582031 70.46875 -124.0625 C 70.125 -124.539062 69.476562 -124.78125 68.53125 -124.78125 C 67.03125 -124.78125 66.078125 -123.757812 65.671875 -121.71875 L 53.1875 -65.25 Z M 83.671875 -65.25 "/></g></g></g><g fill="#fefefe" fill-opacity="1"><g transform="translate(424.034041, 157.044574)"><g><path d="M 131.734375 -2.453125 C 131.734375 -0.816406 130.710938 0 128.671875 0 L 97.375 0 C 96.28125 0 95.457031 -0.441406 94.90625 -1.328125 C 94.363281 -2.210938 93.820312 -3.132812 93.28125 -4.09375 L 65.875 -55.84375 L 63.625 -55.640625 C 61.4375 -55.640625 58.941406 -55.707031 56.140625 -55.84375 C 53.347656 -55.976562 51 -56.046875 49.09375 -56.046875 L 49.09375 -4.09375 C 49.09375 -3 48.679688 -2.039062 47.859375 -1.21875 C 47.046875 -0.40625 46.09375 0 45 0 L 18.40625 0 C 17.320312 0 16.367188 -0.40625 15.546875 -1.21875 C 14.722656 -2.039062 14.3125 -3 14.3125 -4.09375 L 14.3125 -141.359375 C 14.3125 -144.898438 15.0625 -147.285156 16.5625 -148.515625 C 18.0625 -149.742188 20.382812 -150.628906 23.53125 -151.171875 C 28.300781 -151.847656 34.570312 -152.457031 42.34375 -153 C 50.113281 -153.550781 57.679688 -153.828125 65.046875 -153.828125 C 76.640625 -153.828125 87.070312 -152.359375 96.34375 -149.421875 C 105.625 -146.492188 112.988281 -141.550781 118.4375 -134.59375 C 123.894531 -127.644531 126.625 -118.101562 126.625 -105.96875 L 126.625 -103.296875 C 126.625 -92.523438 124.097656 -83.765625 119.046875 -77.015625 C 114.003906 -70.265625 107.734375 -65.390625 100.234375 -62.390625 L 131.125 -4.703125 C 131.53125 -3.890625 131.734375 -3.140625 131.734375 -2.453125 Z M 91.84375 -103.296875 L 91.84375 -105.96875 C 91.84375 -112.238281 89.523438 -116.835938 84.890625 -119.765625 C 80.253906 -122.703125 73.640625 -124.171875 65.046875 -124.171875 C 64.097656 -124.171875 62.5 -124.132812 60.25 -124.0625 C 58 -124 55.78125 -123.929688 53.59375 -123.859375 C 51.414062 -123.796875 49.914062 -123.695312 49.09375 -123.5625 L 49.09375 -84.28125 C 49.914062 -84.28125 51.347656 -84.242188 53.390625 -84.171875 C 55.429688 -84.109375 57.472656 -84.039062 59.515625 -83.96875 C 61.566406 -83.90625 62.9375 -83.875 63.625 -83.875 C 74.394531 -83.875 81.789062 -85.375 85.8125 -88.375 C 89.832031 -91.375 91.84375 -96.347656 91.84375 -103.296875 Z M 91.84375 -103.296875 "/></g></g></g><g fill="#fefefe" fill-opacity="1"><g transform="translate(556.577624, 157.044574)"><g><path d="M 114.96875 -127.03125 C 114.96875 -125.9375 114.523438 -125.015625 113.640625 -124.265625 C 112.753906 -123.515625 111.765625 -123.140625 110.671875 -123.140625 L 77.53125 -123.140625 L 77.53125 -4.09375 C 77.53125 -3 77.117188 -2.039062 76.296875 -1.21875 C 75.484375 -0.40625 74.53125 0 73.4375 0 L 46.640625 0 C 45.546875 0 44.585938 -0.40625 43.765625 -1.21875 C 42.953125 -2.039062 42.546875 -3 42.546875 -4.09375 L 42.546875 -123.140625 L 9.203125 -123.140625 C 8.109375 -123.140625 7.148438 -123.515625 6.328125 -124.265625 C 5.515625 -125.015625 5.109375 -125.9375 5.109375 -127.03125 L 5.109375 -148.109375 C 5.109375 -149.191406 5.515625 -150.109375 6.328125 -150.859375 C 7.148438 -151.609375 8.109375 -151.984375 9.203125 -151.984375 L 110.671875 -151.984375 C 111.765625 -151.984375 112.753906 -151.609375 113.640625 -150.859375 C 114.523438 -150.109375 114.96875 -149.191406 114.96875 -148.109375 Z M 114.96875 -127.03125 "/></g></g></g></g></g></svg>